G04 #@! TF.GenerationSoftware,KiCad,Pcbnew,8.0.6*
G04 #@! TF.CreationDate,2024-11-10T19:19:03-05:00*
G04 #@! TF.ProjectId,t41_2_lpf_board_orthog,7434315f-325f-46c7-9066-5f626f617264,rev?*
G04 #@! TF.SameCoordinates,Original*
G04 #@! TF.FileFunction,Legend,Bot*
G04 #@! TF.FilePolarity,Positive*
%FSLAX46Y46*%
G04 Gerber Fmt 4.6, Leading zero omitted, Abs format (unit mm)*
G04 Created by KiCad (PCBNEW 8.0.6) date 2024-11-10 19:19:03*
%MOMM*%
%LPD*%
G01*
G04 APERTURE LIST*
G04 Aperture macros list*
%AMRoundRect*
0 Rectangle with rounded corners*
0 $1 Rounding radius*
0 $2 $3 $4 $5 $6 $7 $8 $9 X,Y pos of 4 corners*
0 Add a 4 corners polygon primitive as box body*
4,1,4,$2,$3,$4,$5,$6,$7,$8,$9,$2,$3,0*
0 Add four circle primitives for the rounded corners*
1,1,$1+$1,$2,$3*
1,1,$1+$1,$4,$5*
1,1,$1+$1,$6,$7*
1,1,$1+$1,$8,$9*
0 Add four rect primitives between the rounded corners*
20,1,$1+$1,$2,$3,$4,$5,0*
20,1,$1+$1,$4,$5,$6,$7,0*
20,1,$1+$1,$6,$7,$8,$9,0*
20,1,$1+$1,$8,$9,$2,$3,0*%
G04 Aperture macros list end*
%ADD10C,0.150000*%
%ADD11C,0.120000*%
%ADD12C,2.600000*%
%ADD13C,2.500000*%
%ADD14C,1.498600*%
%ADD15RoundRect,0.250000X-0.600000X-0.600000X0.600000X-0.600000X0.600000X0.600000X-0.600000X0.600000X0*%
%ADD16C,1.700000*%
%ADD17C,2.100000*%
%ADD18RoundRect,0.381000X-0.381000X0.762000X-0.381000X-0.762000X0.381000X-0.762000X0.381000X0.762000X0*%
%ADD19RoundRect,0.381000X0.381000X-0.762000X0.381000X0.762000X-0.381000X0.762000X-0.381000X-0.762000X0*%
%ADD20RoundRect,0.250000X-0.625000X0.312500X-0.625000X-0.312500X0.625000X-0.312500X0.625000X0.312500X0*%
%ADD21RoundRect,0.381000X-0.762000X-0.381000X0.762000X-0.381000X0.762000X0.381000X-0.762000X0.381000X0*%
%ADD22RoundRect,0.250000X0.625000X-0.312500X0.625000X0.312500X-0.625000X0.312500X-0.625000X-0.312500X0*%
G04 APERTURE END LIST*
D10*
X143525125Y-56247438D02*
X143525125Y-54247438D01*
X143525125Y-54247438D02*
X142763220Y-54247438D01*
X142763220Y-54247438D02*
X142572744Y-54342676D01*
X142572744Y-54342676D02*
X142477506Y-54437914D01*
X142477506Y-54437914D02*
X142382268Y-54628390D01*
X142382268Y-54628390D02*
X142382268Y-54914104D01*
X142382268Y-54914104D02*
X142477506Y-55104580D01*
X142477506Y-55104580D02*
X142572744Y-55199819D01*
X142572744Y-55199819D02*
X142763220Y-55295057D01*
X142763220Y-55295057D02*
X143525125Y-55295057D01*
X141620363Y-55676009D02*
X140667982Y-55676009D01*
X141810839Y-56247438D02*
X141144173Y-54247438D01*
X141144173Y-54247438D02*
X140477506Y-56247438D01*
X183920363Y-55676009D02*
X182967982Y-55676009D01*
X184110839Y-56247438D02*
X183444173Y-54247438D01*
X183444173Y-54247438D02*
X182777506Y-56247438D01*
X182110839Y-56247438D02*
X182110839Y-54247438D01*
X182110839Y-54247438D02*
X180967982Y-56247438D01*
X180967982Y-56247438D02*
X180967982Y-54247438D01*
X180301315Y-54247438D02*
X179158458Y-54247438D01*
X179729887Y-56247438D02*
X179729887Y-54247438D01*
X113379268Y-56147438D02*
X114045935Y-55195057D01*
X114522125Y-56147438D02*
X114522125Y-54147438D01*
X114522125Y-54147438D02*
X113760220Y-54147438D01*
X113760220Y-54147438D02*
X113569744Y-54242676D01*
X113569744Y-54242676D02*
X113474506Y-54337914D01*
X113474506Y-54337914D02*
X113379268Y-54528390D01*
X113379268Y-54528390D02*
X113379268Y-54814104D01*
X113379268Y-54814104D02*
X113474506Y-55004580D01*
X113474506Y-55004580D02*
X113569744Y-55099819D01*
X113569744Y-55099819D02*
X113760220Y-55195057D01*
X113760220Y-55195057D02*
X114522125Y-55195057D01*
X112712601Y-54147438D02*
X111379268Y-56147438D01*
X111379268Y-54147438D02*
X112712601Y-56147438D01*
X161496665Y-124659818D02*
X161972855Y-124659818D01*
X161972855Y-124659818D02*
X161972855Y-123659818D01*
X160734760Y-123659818D02*
X160925236Y-123659818D01*
X160925236Y-123659818D02*
X161020474Y-123707437D01*
X161020474Y-123707437D02*
X161068093Y-123755056D01*
X161068093Y-123755056D02*
X161163331Y-123897913D01*
X161163331Y-123897913D02*
X161210950Y-124088389D01*
X161210950Y-124088389D02*
X161210950Y-124469341D01*
X161210950Y-124469341D02*
X161163331Y-124564579D01*
X161163331Y-124564579D02*
X161115712Y-124612199D01*
X161115712Y-124612199D02*
X161020474Y-124659818D01*
X161020474Y-124659818D02*
X160829998Y-124659818D01*
X160829998Y-124659818D02*
X160734760Y-124612199D01*
X160734760Y-124612199D02*
X160687141Y-124564579D01*
X160687141Y-124564579D02*
X160639522Y-124469341D01*
X160639522Y-124469341D02*
X160639522Y-124231246D01*
X160639522Y-124231246D02*
X160687141Y-124136008D01*
X160687141Y-124136008D02*
X160734760Y-124088389D01*
X160734760Y-124088389D02*
X160829998Y-124040770D01*
X160829998Y-124040770D02*
X161020474Y-124040770D01*
X161020474Y-124040770D02*
X161115712Y-124088389D01*
X161115712Y-124088389D02*
X161163331Y-124136008D01*
X161163331Y-124136008D02*
X161210950Y-124231246D01*
X180279166Y-139704819D02*
X180755356Y-139704819D01*
X180755356Y-139704819D02*
X180755356Y-138704819D01*
X179469642Y-138704819D02*
X179945832Y-138704819D01*
X179945832Y-138704819D02*
X179993451Y-139181009D01*
X179993451Y-139181009D02*
X179945832Y-139133390D01*
X179945832Y-139133390D02*
X179850594Y-139085771D01*
X179850594Y-139085771D02*
X179612499Y-139085771D01*
X179612499Y-139085771D02*
X179517261Y-139133390D01*
X179517261Y-139133390D02*
X179469642Y-139181009D01*
X179469642Y-139181009D02*
X179422023Y-139276247D01*
X179422023Y-139276247D02*
X179422023Y-139514342D01*
X179422023Y-139514342D02*
X179469642Y-139609580D01*
X179469642Y-139609580D02*
X179517261Y-139657200D01*
X179517261Y-139657200D02*
X179612499Y-139704819D01*
X179612499Y-139704819D02*
X179850594Y-139704819D01*
X179850594Y-139704819D02*
X179945832Y-139657200D01*
X179945832Y-139657200D02*
X179993451Y-139609580D01*
X125842857Y-70654819D02*
X126176190Y-70178628D01*
X126414285Y-70654819D02*
X126414285Y-69654819D01*
X126414285Y-69654819D02*
X126033333Y-69654819D01*
X126033333Y-69654819D02*
X125938095Y-69702438D01*
X125938095Y-69702438D02*
X125890476Y-69750057D01*
X125890476Y-69750057D02*
X125842857Y-69845295D01*
X125842857Y-69845295D02*
X125842857Y-69988152D01*
X125842857Y-69988152D02*
X125890476Y-70083390D01*
X125890476Y-70083390D02*
X125938095Y-70131009D01*
X125938095Y-70131009D02*
X126033333Y-70178628D01*
X126033333Y-70178628D02*
X126414285Y-70178628D01*
X124890476Y-70654819D02*
X125461904Y-70654819D01*
X125176190Y-70654819D02*
X125176190Y-69654819D01*
X125176190Y-69654819D02*
X125271428Y-69797676D01*
X125271428Y-69797676D02*
X125366666Y-69892914D01*
X125366666Y-69892914D02*
X125461904Y-69940533D01*
X124271428Y-69654819D02*
X124176190Y-69654819D01*
X124176190Y-69654819D02*
X124080952Y-69702438D01*
X124080952Y-69702438D02*
X124033333Y-69750057D01*
X124033333Y-69750057D02*
X123985714Y-69845295D01*
X123985714Y-69845295D02*
X123938095Y-70035771D01*
X123938095Y-70035771D02*
X123938095Y-70273866D01*
X123938095Y-70273866D02*
X123985714Y-70464342D01*
X123985714Y-70464342D02*
X124033333Y-70559580D01*
X124033333Y-70559580D02*
X124080952Y-70607200D01*
X124080952Y-70607200D02*
X124176190Y-70654819D01*
X124176190Y-70654819D02*
X124271428Y-70654819D01*
X124271428Y-70654819D02*
X124366666Y-70607200D01*
X124366666Y-70607200D02*
X124414285Y-70559580D01*
X124414285Y-70559580D02*
X124461904Y-70464342D01*
X124461904Y-70464342D02*
X124509523Y-70273866D01*
X124509523Y-70273866D02*
X124509523Y-70035771D01*
X124509523Y-70035771D02*
X124461904Y-69845295D01*
X124461904Y-69845295D02*
X124414285Y-69750057D01*
X124414285Y-69750057D02*
X124366666Y-69702438D01*
X124366666Y-69702438D02*
X124271428Y-69654819D01*
X125961904Y-71488152D02*
X125961904Y-72154819D01*
X126199999Y-71107200D02*
X126438094Y-71821485D01*
X126438094Y-71821485D02*
X125819047Y-71821485D01*
X125533332Y-71154819D02*
X124866666Y-71154819D01*
X124866666Y-71154819D02*
X125295237Y-72154819D01*
X124295237Y-71154819D02*
X124199999Y-71154819D01*
X124199999Y-71154819D02*
X124104761Y-71202438D01*
X124104761Y-71202438D02*
X124057142Y-71250057D01*
X124057142Y-71250057D02*
X124009523Y-71345295D01*
X124009523Y-71345295D02*
X123961904Y-71535771D01*
X123961904Y-71535771D02*
X123961904Y-71773866D01*
X123961904Y-71773866D02*
X124009523Y-71964342D01*
X124009523Y-71964342D02*
X124057142Y-72059580D01*
X124057142Y-72059580D02*
X124104761Y-72107200D01*
X124104761Y-72107200D02*
X124199999Y-72154819D01*
X124199999Y-72154819D02*
X124295237Y-72154819D01*
X124295237Y-72154819D02*
X124390475Y-72107200D01*
X124390475Y-72107200D02*
X124438094Y-72059580D01*
X124438094Y-72059580D02*
X124485713Y-71964342D01*
X124485713Y-71964342D02*
X124533332Y-71773866D01*
X124533332Y-71773866D02*
X124533332Y-71535771D01*
X124533332Y-71535771D02*
X124485713Y-71345295D01*
X124485713Y-71345295D02*
X124438094Y-71250057D01*
X124438094Y-71250057D02*
X124390475Y-71202438D01*
X124390475Y-71202438D02*
X124295237Y-71154819D01*
X171679166Y-132404819D02*
X172155356Y-132404819D01*
X172155356Y-132404819D02*
X172155356Y-131404819D01*
X170917261Y-131738152D02*
X170917261Y-132404819D01*
X171155356Y-131357200D02*
X171393451Y-132071485D01*
X171393451Y-132071485D02*
X170774404Y-132071485D01*
X161479166Y-139404819D02*
X161955356Y-139404819D01*
X161955356Y-139404819D02*
X161955356Y-138404819D01*
X161241070Y-138404819D02*
X160622023Y-138404819D01*
X160622023Y-138404819D02*
X160955356Y-138785771D01*
X160955356Y-138785771D02*
X160812499Y-138785771D01*
X160812499Y-138785771D02*
X160717261Y-138833390D01*
X160717261Y-138833390D02*
X160669642Y-138881009D01*
X160669642Y-138881009D02*
X160622023Y-138976247D01*
X160622023Y-138976247D02*
X160622023Y-139214342D01*
X160622023Y-139214342D02*
X160669642Y-139309580D01*
X160669642Y-139309580D02*
X160717261Y-139357200D01*
X160717261Y-139357200D02*
X160812499Y-139404819D01*
X160812499Y-139404819D02*
X161098213Y-139404819D01*
X161098213Y-139404819D02*
X161193451Y-139357200D01*
X161193451Y-139357200D02*
X161241070Y-139309580D01*
X180296666Y-124959818D02*
X180772856Y-124959818D01*
X180772856Y-124959818D02*
X180772856Y-123959818D01*
X179820475Y-124388389D02*
X179915713Y-124340770D01*
X179915713Y-124340770D02*
X179963332Y-124293151D01*
X179963332Y-124293151D02*
X180010951Y-124197913D01*
X180010951Y-124197913D02*
X180010951Y-124150294D01*
X180010951Y-124150294D02*
X179963332Y-124055056D01*
X179963332Y-124055056D02*
X179915713Y-124007437D01*
X179915713Y-124007437D02*
X179820475Y-123959818D01*
X179820475Y-123959818D02*
X179629999Y-123959818D01*
X179629999Y-123959818D02*
X179534761Y-124007437D01*
X179534761Y-124007437D02*
X179487142Y-124055056D01*
X179487142Y-124055056D02*
X179439523Y-124150294D01*
X179439523Y-124150294D02*
X179439523Y-124197913D01*
X179439523Y-124197913D02*
X179487142Y-124293151D01*
X179487142Y-124293151D02*
X179534761Y-124340770D01*
X179534761Y-124340770D02*
X179629999Y-124388389D01*
X179629999Y-124388389D02*
X179820475Y-124388389D01*
X179820475Y-124388389D02*
X179915713Y-124436008D01*
X179915713Y-124436008D02*
X179963332Y-124483627D01*
X179963332Y-124483627D02*
X180010951Y-124578865D01*
X180010951Y-124578865D02*
X180010951Y-124769341D01*
X180010951Y-124769341D02*
X179963332Y-124864579D01*
X179963332Y-124864579D02*
X179915713Y-124912199D01*
X179915713Y-124912199D02*
X179820475Y-124959818D01*
X179820475Y-124959818D02*
X179629999Y-124959818D01*
X179629999Y-124959818D02*
X179534761Y-124912199D01*
X179534761Y-124912199D02*
X179487142Y-124864579D01*
X179487142Y-124864579D02*
X179439523Y-124769341D01*
X179439523Y-124769341D02*
X179439523Y-124578865D01*
X179439523Y-124578865D02*
X179487142Y-124483627D01*
X179487142Y-124483627D02*
X179534761Y-124436008D01*
X179534761Y-124436008D02*
X179629999Y-124388389D01*
X171702857Y-88004818D02*
X172179047Y-88004818D01*
X172179047Y-88004818D02*
X172179047Y-87004818D01*
X170845714Y-88004818D02*
X171417142Y-88004818D01*
X171131428Y-88004818D02*
X171131428Y-87004818D01*
X171131428Y-87004818D02*
X171226666Y-87147675D01*
X171226666Y-87147675D02*
X171321904Y-87242913D01*
X171321904Y-87242913D02*
X171417142Y-87290532D01*
X170512380Y-87004818D02*
X169893333Y-87004818D01*
X169893333Y-87004818D02*
X170226666Y-87385770D01*
X170226666Y-87385770D02*
X170083809Y-87385770D01*
X170083809Y-87385770D02*
X169988571Y-87433389D01*
X169988571Y-87433389D02*
X169940952Y-87481008D01*
X169940952Y-87481008D02*
X169893333Y-87576246D01*
X169893333Y-87576246D02*
X169893333Y-87814341D01*
X169893333Y-87814341D02*
X169940952Y-87909579D01*
X169940952Y-87909579D02*
X169988571Y-87957199D01*
X169988571Y-87957199D02*
X170083809Y-88004818D01*
X170083809Y-88004818D02*
X170369523Y-88004818D01*
X170369523Y-88004818D02*
X170464761Y-87957199D01*
X170464761Y-87957199D02*
X170512380Y-87909579D01*
X132256666Y-72162519D02*
X132589999Y-71686328D01*
X132828094Y-72162519D02*
X132828094Y-71162519D01*
X132828094Y-71162519D02*
X132447142Y-71162519D01*
X132447142Y-71162519D02*
X132351904Y-71210138D01*
X132351904Y-71210138D02*
X132304285Y-71257757D01*
X132304285Y-71257757D02*
X132256666Y-71352995D01*
X132256666Y-71352995D02*
X132256666Y-71495852D01*
X132256666Y-71495852D02*
X132304285Y-71591090D01*
X132304285Y-71591090D02*
X132351904Y-71638709D01*
X132351904Y-71638709D02*
X132447142Y-71686328D01*
X132447142Y-71686328D02*
X132828094Y-71686328D01*
X131780475Y-72162519D02*
X131589999Y-72162519D01*
X131589999Y-72162519D02*
X131494761Y-72114900D01*
X131494761Y-72114900D02*
X131447142Y-72067280D01*
X131447142Y-72067280D02*
X131351904Y-71924423D01*
X131351904Y-71924423D02*
X131304285Y-71733947D01*
X131304285Y-71733947D02*
X131304285Y-71352995D01*
X131304285Y-71352995D02*
X131351904Y-71257757D01*
X131351904Y-71257757D02*
X131399523Y-71210138D01*
X131399523Y-71210138D02*
X131494761Y-71162519D01*
X131494761Y-71162519D02*
X131685237Y-71162519D01*
X131685237Y-71162519D02*
X131780475Y-71210138D01*
X131780475Y-71210138D02*
X131828094Y-71257757D01*
X131828094Y-71257757D02*
X131875713Y-71352995D01*
X131875713Y-71352995D02*
X131875713Y-71591090D01*
X131875713Y-71591090D02*
X131828094Y-71686328D01*
X131828094Y-71686328D02*
X131780475Y-71733947D01*
X131780475Y-71733947D02*
X131685237Y-71781566D01*
X131685237Y-71781566D02*
X131494761Y-71781566D01*
X131494761Y-71781566D02*
X131399523Y-71733947D01*
X131399523Y-71733947D02*
X131351904Y-71686328D01*
X131351904Y-71686328D02*
X131304285Y-71591090D01*
X133328095Y-72892852D02*
X133328095Y-73559519D01*
X133566190Y-72511900D02*
X133804285Y-73226185D01*
X133804285Y-73226185D02*
X133185238Y-73226185D01*
X132899523Y-72559519D02*
X132232857Y-72559519D01*
X132232857Y-72559519D02*
X132661428Y-73559519D01*
X131661428Y-72559519D02*
X131566190Y-72559519D01*
X131566190Y-72559519D02*
X131470952Y-72607138D01*
X131470952Y-72607138D02*
X131423333Y-72654757D01*
X131423333Y-72654757D02*
X131375714Y-72749995D01*
X131375714Y-72749995D02*
X131328095Y-72940471D01*
X131328095Y-72940471D02*
X131328095Y-73178566D01*
X131328095Y-73178566D02*
X131375714Y-73369042D01*
X131375714Y-73369042D02*
X131423333Y-73464280D01*
X131423333Y-73464280D02*
X131470952Y-73511900D01*
X131470952Y-73511900D02*
X131566190Y-73559519D01*
X131566190Y-73559519D02*
X131661428Y-73559519D01*
X131661428Y-73559519D02*
X131756666Y-73511900D01*
X131756666Y-73511900D02*
X131804285Y-73464280D01*
X131804285Y-73464280D02*
X131851904Y-73369042D01*
X131851904Y-73369042D02*
X131899523Y-73178566D01*
X131899523Y-73178566D02*
X131899523Y-72940471D01*
X131899523Y-72940471D02*
X131851904Y-72749995D01*
X131851904Y-72749995D02*
X131804285Y-72654757D01*
X131804285Y-72654757D02*
X131756666Y-72607138D01*
X131756666Y-72607138D02*
X131661428Y-72559519D01*
X130709047Y-72559519D02*
X130613809Y-72559519D01*
X130613809Y-72559519D02*
X130518571Y-72607138D01*
X130518571Y-72607138D02*
X130470952Y-72654757D01*
X130470952Y-72654757D02*
X130423333Y-72749995D01*
X130423333Y-72749995D02*
X130375714Y-72940471D01*
X130375714Y-72940471D02*
X130375714Y-73178566D01*
X130375714Y-73178566D02*
X130423333Y-73369042D01*
X130423333Y-73369042D02*
X130470952Y-73464280D01*
X130470952Y-73464280D02*
X130518571Y-73511900D01*
X130518571Y-73511900D02*
X130613809Y-73559519D01*
X130613809Y-73559519D02*
X130709047Y-73559519D01*
X130709047Y-73559519D02*
X130804285Y-73511900D01*
X130804285Y-73511900D02*
X130851904Y-73464280D01*
X130851904Y-73464280D02*
X130899523Y-73369042D01*
X130899523Y-73369042D02*
X130947142Y-73178566D01*
X130947142Y-73178566D02*
X130947142Y-72940471D01*
X130947142Y-72940471D02*
X130899523Y-72749995D01*
X130899523Y-72749995D02*
X130851904Y-72654757D01*
X130851904Y-72654757D02*
X130804285Y-72607138D01*
X130804285Y-72607138D02*
X130709047Y-72559519D01*
X180425357Y-110154818D02*
X180901547Y-110154818D01*
X180901547Y-110154818D02*
X180901547Y-109154818D01*
X179568214Y-110154818D02*
X180139642Y-110154818D01*
X179853928Y-110154818D02*
X179853928Y-109154818D01*
X179853928Y-109154818D02*
X179949166Y-109297675D01*
X179949166Y-109297675D02*
X180044404Y-109392913D01*
X180044404Y-109392913D02*
X180139642Y-109440532D01*
X178615833Y-110154818D02*
X179187261Y-110154818D01*
X178901547Y-110154818D02*
X178901547Y-109154818D01*
X178901547Y-109154818D02*
X178996785Y-109297675D01*
X178996785Y-109297675D02*
X179092023Y-109392913D01*
X179092023Y-109392913D02*
X179187261Y-109440532D01*
X117666666Y-115354819D02*
X117999999Y-114878628D01*
X118238094Y-115354819D02*
X118238094Y-114354819D01*
X118238094Y-114354819D02*
X117857142Y-114354819D01*
X117857142Y-114354819D02*
X117761904Y-114402438D01*
X117761904Y-114402438D02*
X117714285Y-114450057D01*
X117714285Y-114450057D02*
X117666666Y-114545295D01*
X117666666Y-114545295D02*
X117666666Y-114688152D01*
X117666666Y-114688152D02*
X117714285Y-114783390D01*
X117714285Y-114783390D02*
X117761904Y-114831009D01*
X117761904Y-114831009D02*
X117857142Y-114878628D01*
X117857142Y-114878628D02*
X118238094Y-114878628D01*
X117095237Y-114783390D02*
X117190475Y-114735771D01*
X117190475Y-114735771D02*
X117238094Y-114688152D01*
X117238094Y-114688152D02*
X117285713Y-114592914D01*
X117285713Y-114592914D02*
X117285713Y-114545295D01*
X117285713Y-114545295D02*
X117238094Y-114450057D01*
X117238094Y-114450057D02*
X117190475Y-114402438D01*
X117190475Y-114402438D02*
X117095237Y-114354819D01*
X117095237Y-114354819D02*
X116904761Y-114354819D01*
X116904761Y-114354819D02*
X116809523Y-114402438D01*
X116809523Y-114402438D02*
X116761904Y-114450057D01*
X116761904Y-114450057D02*
X116714285Y-114545295D01*
X116714285Y-114545295D02*
X116714285Y-114592914D01*
X116714285Y-114592914D02*
X116761904Y-114688152D01*
X116761904Y-114688152D02*
X116809523Y-114735771D01*
X116809523Y-114735771D02*
X116904761Y-114783390D01*
X116904761Y-114783390D02*
X117095237Y-114783390D01*
X117095237Y-114783390D02*
X117190475Y-114831009D01*
X117190475Y-114831009D02*
X117238094Y-114878628D01*
X117238094Y-114878628D02*
X117285713Y-114973866D01*
X117285713Y-114973866D02*
X117285713Y-115164342D01*
X117285713Y-115164342D02*
X117238094Y-115259580D01*
X117238094Y-115259580D02*
X117190475Y-115307200D01*
X117190475Y-115307200D02*
X117095237Y-115354819D01*
X117095237Y-115354819D02*
X116904761Y-115354819D01*
X116904761Y-115354819D02*
X116809523Y-115307200D01*
X116809523Y-115307200D02*
X116761904Y-115259580D01*
X116761904Y-115259580D02*
X116714285Y-115164342D01*
X116714285Y-115164342D02*
X116714285Y-114973866D01*
X116714285Y-114973866D02*
X116761904Y-114878628D01*
X116761904Y-114878628D02*
X116809523Y-114831009D01*
X116809523Y-114831009D02*
X116904761Y-114783390D01*
X115647618Y-114354819D02*
X115552380Y-114354819D01*
X115552380Y-114354819D02*
X115457142Y-114402438D01*
X115457142Y-114402438D02*
X115409523Y-114450057D01*
X115409523Y-114450057D02*
X115361904Y-114545295D01*
X115361904Y-114545295D02*
X115314285Y-114735771D01*
X115314285Y-114735771D02*
X115314285Y-114973866D01*
X115314285Y-114973866D02*
X115361904Y-115164342D01*
X115361904Y-115164342D02*
X115409523Y-115259580D01*
X115409523Y-115259580D02*
X115457142Y-115307200D01*
X115457142Y-115307200D02*
X115552380Y-115354819D01*
X115552380Y-115354819D02*
X115647618Y-115354819D01*
X115647618Y-115354819D02*
X115742856Y-115307200D01*
X115742856Y-115307200D02*
X115790475Y-115259580D01*
X115790475Y-115259580D02*
X115838094Y-115164342D01*
X115838094Y-115164342D02*
X115885713Y-114973866D01*
X115885713Y-114973866D02*
X115885713Y-114735771D01*
X115885713Y-114735771D02*
X115838094Y-114545295D01*
X115838094Y-114545295D02*
X115790475Y-114450057D01*
X115790475Y-114450057D02*
X115742856Y-114402438D01*
X115742856Y-114402438D02*
X115647618Y-114354819D01*
X171562857Y-73254818D02*
X172039047Y-73254818D01*
X172039047Y-73254818D02*
X172039047Y-72254818D01*
X170705714Y-73254818D02*
X171277142Y-73254818D01*
X170991428Y-73254818D02*
X170991428Y-72254818D01*
X170991428Y-72254818D02*
X171086666Y-72397675D01*
X171086666Y-72397675D02*
X171181904Y-72492913D01*
X171181904Y-72492913D02*
X171277142Y-72540532D01*
X169848571Y-72254818D02*
X170039047Y-72254818D01*
X170039047Y-72254818D02*
X170134285Y-72302437D01*
X170134285Y-72302437D02*
X170181904Y-72350056D01*
X170181904Y-72350056D02*
X170277142Y-72492913D01*
X170277142Y-72492913D02*
X170324761Y-72683389D01*
X170324761Y-72683389D02*
X170324761Y-73064341D01*
X170324761Y-73064341D02*
X170277142Y-73159579D01*
X170277142Y-73159579D02*
X170229523Y-73207199D01*
X170229523Y-73207199D02*
X170134285Y-73254818D01*
X170134285Y-73254818D02*
X169943809Y-73254818D01*
X169943809Y-73254818D02*
X169848571Y-73207199D01*
X169848571Y-73207199D02*
X169800952Y-73159579D01*
X169800952Y-73159579D02*
X169753333Y-73064341D01*
X169753333Y-73064341D02*
X169753333Y-72826246D01*
X169753333Y-72826246D02*
X169800952Y-72731008D01*
X169800952Y-72731008D02*
X169848571Y-72683389D01*
X169848571Y-72683389D02*
X169943809Y-72635770D01*
X169943809Y-72635770D02*
X170134285Y-72635770D01*
X170134285Y-72635770D02*
X170229523Y-72683389D01*
X170229523Y-72683389D02*
X170277142Y-72731008D01*
X170277142Y-72731008D02*
X170324761Y-72826246D01*
X180162857Y-80554818D02*
X180639047Y-80554818D01*
X180639047Y-80554818D02*
X180639047Y-79554818D01*
X179305714Y-80554818D02*
X179877142Y-80554818D01*
X179591428Y-80554818D02*
X179591428Y-79554818D01*
X179591428Y-79554818D02*
X179686666Y-79697675D01*
X179686666Y-79697675D02*
X179781904Y-79792913D01*
X179781904Y-79792913D02*
X179877142Y-79840532D01*
X178972380Y-79554818D02*
X178305714Y-79554818D01*
X178305714Y-79554818D02*
X178734285Y-80554818D01*
X113166666Y-115354819D02*
X113499999Y-114878628D01*
X113738094Y-115354819D02*
X113738094Y-114354819D01*
X113738094Y-114354819D02*
X113357142Y-114354819D01*
X113357142Y-114354819D02*
X113261904Y-114402438D01*
X113261904Y-114402438D02*
X113214285Y-114450057D01*
X113214285Y-114450057D02*
X113166666Y-114545295D01*
X113166666Y-114545295D02*
X113166666Y-114688152D01*
X113166666Y-114688152D02*
X113214285Y-114783390D01*
X113214285Y-114783390D02*
X113261904Y-114831009D01*
X113261904Y-114831009D02*
X113357142Y-114878628D01*
X113357142Y-114878628D02*
X113738094Y-114878628D01*
X112833332Y-114354819D02*
X112166666Y-114354819D01*
X112166666Y-114354819D02*
X112595237Y-115354819D01*
X111147618Y-114354819D02*
X111052380Y-114354819D01*
X111052380Y-114354819D02*
X110957142Y-114402438D01*
X110957142Y-114402438D02*
X110909523Y-114450057D01*
X110909523Y-114450057D02*
X110861904Y-114545295D01*
X110861904Y-114545295D02*
X110814285Y-114735771D01*
X110814285Y-114735771D02*
X110814285Y-114973866D01*
X110814285Y-114973866D02*
X110861904Y-115164342D01*
X110861904Y-115164342D02*
X110909523Y-115259580D01*
X110909523Y-115259580D02*
X110957142Y-115307200D01*
X110957142Y-115307200D02*
X111052380Y-115354819D01*
X111052380Y-115354819D02*
X111147618Y-115354819D01*
X111147618Y-115354819D02*
X111242856Y-115307200D01*
X111242856Y-115307200D02*
X111290475Y-115259580D01*
X111290475Y-115259580D02*
X111338094Y-115164342D01*
X111338094Y-115164342D02*
X111385713Y-114973866D01*
X111385713Y-114973866D02*
X111385713Y-114735771D01*
X111385713Y-114735771D02*
X111338094Y-114545295D01*
X111338094Y-114545295D02*
X111290475Y-114450057D01*
X111290475Y-114450057D02*
X111242856Y-114402438D01*
X111242856Y-114402438D02*
X111147618Y-114354819D01*
X161149165Y-109854818D02*
X161625355Y-109854818D01*
X161625355Y-109854818D02*
X161625355Y-108854818D01*
X160768212Y-109854818D02*
X160577736Y-109854818D01*
X160577736Y-109854818D02*
X160482498Y-109807199D01*
X160482498Y-109807199D02*
X160434879Y-109759579D01*
X160434879Y-109759579D02*
X160339641Y-109616722D01*
X160339641Y-109616722D02*
X160292022Y-109426246D01*
X160292022Y-109426246D02*
X160292022Y-109045294D01*
X160292022Y-109045294D02*
X160339641Y-108950056D01*
X160339641Y-108950056D02*
X160387260Y-108902437D01*
X160387260Y-108902437D02*
X160482498Y-108854818D01*
X160482498Y-108854818D02*
X160672974Y-108854818D01*
X160672974Y-108854818D02*
X160768212Y-108902437D01*
X160768212Y-108902437D02*
X160815831Y-108950056D01*
X160815831Y-108950056D02*
X160863450Y-109045294D01*
X160863450Y-109045294D02*
X160863450Y-109283389D01*
X160863450Y-109283389D02*
X160815831Y-109378627D01*
X160815831Y-109378627D02*
X160768212Y-109426246D01*
X160768212Y-109426246D02*
X160672974Y-109473865D01*
X160672974Y-109473865D02*
X160482498Y-109473865D01*
X160482498Y-109473865D02*
X160387260Y-109426246D01*
X160387260Y-109426246D02*
X160339641Y-109378627D01*
X160339641Y-109378627D02*
X160292022Y-109283389D01*
X171696666Y-117659818D02*
X172172856Y-117659818D01*
X172172856Y-117659818D02*
X172172856Y-116659818D01*
X171458570Y-116659818D02*
X170791904Y-116659818D01*
X170791904Y-116659818D02*
X171220475Y-117659818D01*
X161502856Y-95004818D02*
X161979046Y-95004818D01*
X161979046Y-95004818D02*
X161979046Y-94004818D01*
X160645713Y-95004818D02*
X161217141Y-95004818D01*
X160931427Y-95004818D02*
X160931427Y-94004818D01*
X160931427Y-94004818D02*
X161026665Y-94147675D01*
X161026665Y-94147675D02*
X161121903Y-94242913D01*
X161121903Y-94242913D02*
X161217141Y-94290532D01*
X160264760Y-94100056D02*
X160217141Y-94052437D01*
X160217141Y-94052437D02*
X160121903Y-94004818D01*
X160121903Y-94004818D02*
X159883808Y-94004818D01*
X159883808Y-94004818D02*
X159788570Y-94052437D01*
X159788570Y-94052437D02*
X159740951Y-94100056D01*
X159740951Y-94100056D02*
X159693332Y-94195294D01*
X159693332Y-94195294D02*
X159693332Y-94290532D01*
X159693332Y-94290532D02*
X159740951Y-94433389D01*
X159740951Y-94433389D02*
X160312379Y-95004818D01*
X160312379Y-95004818D02*
X159693332Y-95004818D01*
X161362856Y-80254818D02*
X161839046Y-80254818D01*
X161839046Y-80254818D02*
X161839046Y-79254818D01*
X160505713Y-80254818D02*
X161077141Y-80254818D01*
X160791427Y-80254818D02*
X160791427Y-79254818D01*
X160791427Y-79254818D02*
X160886665Y-79397675D01*
X160886665Y-79397675D02*
X160981903Y-79492913D01*
X160981903Y-79492913D02*
X161077141Y-79540532D01*
X159600951Y-79254818D02*
X160077141Y-79254818D01*
X160077141Y-79254818D02*
X160124760Y-79731008D01*
X160124760Y-79731008D02*
X160077141Y-79683389D01*
X160077141Y-79683389D02*
X159981903Y-79635770D01*
X159981903Y-79635770D02*
X159743808Y-79635770D01*
X159743808Y-79635770D02*
X159648570Y-79683389D01*
X159648570Y-79683389D02*
X159600951Y-79731008D01*
X159600951Y-79731008D02*
X159553332Y-79826246D01*
X159553332Y-79826246D02*
X159553332Y-80064341D01*
X159553332Y-80064341D02*
X159600951Y-80159579D01*
X159600951Y-80159579D02*
X159648570Y-80207199D01*
X159648570Y-80207199D02*
X159743808Y-80254818D01*
X159743808Y-80254818D02*
X159981903Y-80254818D01*
X159981903Y-80254818D02*
X160077141Y-80207199D01*
X160077141Y-80207199D02*
X160124760Y-80159579D01*
X171825357Y-102854818D02*
X172301547Y-102854818D01*
X172301547Y-102854818D02*
X172301547Y-101854818D01*
X170968214Y-102854818D02*
X171539642Y-102854818D01*
X171253928Y-102854818D02*
X171253928Y-101854818D01*
X171253928Y-101854818D02*
X171349166Y-101997675D01*
X171349166Y-101997675D02*
X171444404Y-102092913D01*
X171444404Y-102092913D02*
X171539642Y-102140532D01*
X170349166Y-101854818D02*
X170253928Y-101854818D01*
X170253928Y-101854818D02*
X170158690Y-101902437D01*
X170158690Y-101902437D02*
X170111071Y-101950056D01*
X170111071Y-101950056D02*
X170063452Y-102045294D01*
X170063452Y-102045294D02*
X170015833Y-102235770D01*
X170015833Y-102235770D02*
X170015833Y-102473865D01*
X170015833Y-102473865D02*
X170063452Y-102664341D01*
X170063452Y-102664341D02*
X170111071Y-102759579D01*
X170111071Y-102759579D02*
X170158690Y-102807199D01*
X170158690Y-102807199D02*
X170253928Y-102854818D01*
X170253928Y-102854818D02*
X170349166Y-102854818D01*
X170349166Y-102854818D02*
X170444404Y-102807199D01*
X170444404Y-102807199D02*
X170492023Y-102759579D01*
X170492023Y-102759579D02*
X170539642Y-102664341D01*
X170539642Y-102664341D02*
X170587261Y-102473865D01*
X170587261Y-102473865D02*
X170587261Y-102235770D01*
X170587261Y-102235770D02*
X170539642Y-102045294D01*
X170539642Y-102045294D02*
X170492023Y-101950056D01*
X170492023Y-101950056D02*
X170444404Y-101902437D01*
X170444404Y-101902437D02*
X170349166Y-101854818D01*
X180302857Y-95304818D02*
X180779047Y-95304818D01*
X180779047Y-95304818D02*
X180779047Y-94304818D01*
X179445714Y-95304818D02*
X180017142Y-95304818D01*
X179731428Y-95304818D02*
X179731428Y-94304818D01*
X179731428Y-94304818D02*
X179826666Y-94447675D01*
X179826666Y-94447675D02*
X179921904Y-94542913D01*
X179921904Y-94542913D02*
X180017142Y-94590532D01*
X178588571Y-94638151D02*
X178588571Y-95304818D01*
X178826666Y-94257199D02*
X179064761Y-94971484D01*
X179064761Y-94971484D02*
X178445714Y-94971484D01*
D11*
X124290000Y-67727064D02*
X124290000Y-66272936D01*
X126110000Y-67727064D02*
X126110000Y-66272936D01*
X131180000Y-69259764D02*
X131180000Y-67805636D01*
X133000000Y-69259764D02*
X133000000Y-67805636D01*
X114482200Y-117179736D02*
X114482200Y-118633864D01*
X116302200Y-117179736D02*
X116302200Y-118633864D01*
X110824600Y-118644564D02*
X110824600Y-117190436D01*
X112644600Y-118644564D02*
X112644600Y-117190436D01*
%LPC*%
D12*
X130660000Y-52760000D03*
X130660000Y-57840000D03*
X135740000Y-52760000D03*
X135740000Y-57840000D03*
D13*
X133300000Y-55225000D03*
D14*
X139180000Y-95600000D03*
X139180000Y-98140000D03*
X139180000Y-100680000D03*
X139180000Y-103220000D03*
X139180000Y-105760000D03*
X146800000Y-105760000D03*
X146800000Y-103220000D03*
X146800000Y-100680000D03*
X146800000Y-98140000D03*
X146800000Y-95600000D03*
X188180000Y-110400000D03*
X188180000Y-112940000D03*
X188180000Y-115480000D03*
X188180000Y-118020000D03*
X188180000Y-120560000D03*
X195800000Y-120560000D03*
X195800000Y-118020000D03*
X195800000Y-115480000D03*
X195800000Y-112940000D03*
X195800000Y-110400000D03*
D15*
X104267000Y-124155200D03*
D16*
X106807000Y-124155200D03*
X104267000Y-126695200D03*
X106807000Y-126695200D03*
X104267000Y-129235200D03*
X106807000Y-129235200D03*
X104267000Y-131775200D03*
X106807000Y-131775200D03*
X104267000Y-134315200D03*
X106807000Y-134315200D03*
D14*
X188180000Y-80800000D03*
X188180000Y-83340000D03*
X188180000Y-85880000D03*
X188180000Y-88420000D03*
X188180000Y-90960000D03*
X195800000Y-90960000D03*
X195800000Y-88420000D03*
X195800000Y-85880000D03*
X195800000Y-83340000D03*
X195800000Y-80800000D03*
X139200000Y-66000000D03*
X139200000Y-68540000D03*
X139200000Y-71080000D03*
X139200000Y-73620000D03*
X139200000Y-76160000D03*
X146820000Y-76160000D03*
X146820000Y-73620000D03*
X146820000Y-71080000D03*
X146820000Y-68540000D03*
X146820000Y-66000000D03*
D15*
X104216200Y-86360000D03*
D16*
X106756200Y-86360000D03*
X104216200Y-88900000D03*
X106756200Y-88900000D03*
X104216200Y-91440000D03*
X106756200Y-91440000D03*
X104216200Y-93980000D03*
X106756200Y-93980000D03*
X104216200Y-96520000D03*
X106756200Y-96520000D03*
X104216200Y-99060000D03*
X106756200Y-99060000D03*
X104216200Y-101600000D03*
X106756200Y-101600000D03*
X104216200Y-104140000D03*
X106756200Y-104140000D03*
D12*
X192880000Y-52720000D03*
X187800000Y-52720000D03*
X192880000Y-57800000D03*
X187800000Y-57800000D03*
D13*
X190415000Y-55360000D03*
D12*
X108112000Y-53178000D03*
X103032000Y-53178000D03*
X108112000Y-58258000D03*
X103032000Y-58258000D03*
D13*
X105647000Y-55818000D03*
D14*
X139190000Y-110400000D03*
X139190000Y-112940000D03*
X139190000Y-115480000D03*
X139190000Y-118020000D03*
X139190000Y-120560000D03*
X146810000Y-120560000D03*
X146810000Y-118020000D03*
X146810000Y-115480000D03*
X146810000Y-112940000D03*
X146810000Y-110400000D03*
X139190000Y-80800000D03*
X139190000Y-83340000D03*
X139190000Y-85880000D03*
X139190000Y-88420000D03*
X139190000Y-90960000D03*
X146810000Y-90960000D03*
X146810000Y-88420000D03*
X146810000Y-85880000D03*
X146810000Y-83340000D03*
X146810000Y-80800000D03*
X139190000Y-125200000D03*
X139190000Y-127740000D03*
X139190000Y-130280000D03*
X139190000Y-132820000D03*
X139190000Y-135360000D03*
X146810000Y-135360000D03*
X146810000Y-132820000D03*
X146810000Y-130280000D03*
X146810000Y-127740000D03*
X146810000Y-125200000D03*
X135900000Y-73600000D03*
X135900000Y-71060000D03*
X135900000Y-68520000D03*
X135900000Y-65980000D03*
X135900000Y-63440000D03*
X128280000Y-63440000D03*
X128280000Y-65980000D03*
X128280000Y-68520000D03*
X128280000Y-71060000D03*
X128280000Y-73600000D03*
D17*
X103418000Y-114046000D03*
X105918000Y-114046000D03*
D14*
X188180000Y-95600000D03*
X188180000Y-98140000D03*
X188180000Y-100680000D03*
X188180000Y-103220000D03*
X188180000Y-105760000D03*
X195800000Y-105760000D03*
X195800000Y-103220000D03*
X195800000Y-100680000D03*
X195800000Y-98140000D03*
X195800000Y-95600000D03*
X188180000Y-66000000D03*
X188180000Y-68540000D03*
X188180000Y-71080000D03*
X188180000Y-73620000D03*
X188180000Y-76160000D03*
X195800000Y-76160000D03*
X195800000Y-73620000D03*
X195800000Y-71080000D03*
X195800000Y-68540000D03*
X195800000Y-66000000D03*
X188190000Y-125200000D03*
X188190000Y-127740000D03*
X188190000Y-130280000D03*
X188190000Y-132820000D03*
X188190000Y-135360000D03*
X195810000Y-135360000D03*
X195810000Y-132820000D03*
X195810000Y-130280000D03*
X195810000Y-127740000D03*
X195810000Y-125200000D03*
D18*
X157730000Y-115504999D03*
X157730000Y-125304999D03*
D19*
X176412500Y-140250000D03*
X176412500Y-130450000D03*
D20*
X125200000Y-65537500D03*
X125200000Y-68462500D03*
D21*
X162132500Y-135180000D03*
X171932500Y-135180000D03*
D18*
X157712500Y-130250000D03*
X157712500Y-140050000D03*
D19*
X176430000Y-125504999D03*
X176430000Y-115704999D03*
D21*
X161680000Y-90779999D03*
X171480000Y-90779999D03*
D20*
X132090000Y-67070200D03*
X132090000Y-69995200D03*
D19*
X176082500Y-110699999D03*
X176082500Y-100899999D03*
D22*
X115392200Y-119369300D03*
X115392200Y-116444300D03*
D21*
X161540000Y-76029999D03*
X171340000Y-76029999D03*
D19*
X175820000Y-81099999D03*
X175820000Y-71299999D03*
D20*
X111734600Y-116455000D03*
X111734600Y-119380000D03*
D18*
X157382500Y-100699999D03*
X157382500Y-110499999D03*
D21*
X162150000Y-120434999D03*
X171950000Y-120434999D03*
D18*
X157260000Y-85849999D03*
X157260000Y-95649999D03*
X157120000Y-71099999D03*
X157120000Y-80899999D03*
D21*
X161802500Y-105629999D03*
X171602500Y-105629999D03*
D19*
X175960000Y-95849999D03*
X175960000Y-86049999D03*
%LPD*%
M02*
