G04 #@! TF.GenerationSoftware,KiCad,Pcbnew,8.0.6*
G04 #@! TF.CreationDate,2024-12-01T19:48:41-05:00*
G04 #@! TF.ProjectId,T41_2_lpf,5434315f-325f-46c7-9066-2e6b69636164,rev?*
G04 #@! TF.SameCoordinates,Original*
G04 #@! TF.FileFunction,Legend,Bot*
G04 #@! TF.FilePolarity,Positive*
%FSLAX46Y46*%
G04 Gerber Fmt 4.6, Leading zero omitted, Abs format (unit mm)*
G04 Created by KiCad (PCBNEW 8.0.6) date 2024-12-01 19:48:41*
%MOMM*%
%LPD*%
G01*
G04 APERTURE LIST*
G04 Aperture macros list*
%AMRoundRect*
0 Rectangle with rounded corners*
0 $1 Rounding radius*
0 $2 $3 $4 $5 $6 $7 $8 $9 X,Y pos of 4 corners*
0 Add a 4 corners polygon primitive as box body*
4,1,4,$2,$3,$4,$5,$6,$7,$8,$9,$2,$3,0*
0 Add four circle primitives for the rounded corners*
1,1,$1+$1,$2,$3*
1,1,$1+$1,$4,$5*
1,1,$1+$1,$6,$7*
1,1,$1+$1,$8,$9*
0 Add four rect primitives between the rounded corners*
20,1,$1+$1,$2,$3,$4,$5,0*
20,1,$1+$1,$4,$5,$6,$7,0*
20,1,$1+$1,$6,$7,$8,$9,0*
20,1,$1+$1,$8,$9,$2,$3,0*%
G04 Aperture macros list end*
%ADD10C,0.150000*%
%ADD11C,0.120000*%
%ADD12C,2.600000*%
%ADD13C,2.500000*%
%ADD14C,1.498600*%
%ADD15RoundRect,0.250000X-0.600000X-0.600000X0.600000X-0.600000X0.600000X0.600000X-0.600000X0.600000X0*%
%ADD16C,1.700000*%
%ADD17C,2.100000*%
%ADD18RoundRect,0.381000X0.381000X-0.762000X0.381000X0.762000X-0.381000X0.762000X-0.381000X-0.762000X0*%
%ADD19RoundRect,0.250000X-0.625000X0.312500X-0.625000X-0.312500X0.625000X-0.312500X0.625000X0.312500X0*%
%ADD20RoundRect,0.381000X-0.762000X-0.381000X0.762000X-0.381000X0.762000X0.381000X-0.762000X0.381000X0*%
%ADD21RoundRect,0.381000X-0.381000X0.762000X-0.381000X-0.762000X0.381000X-0.762000X0.381000X0.762000X0*%
%ADD22RoundRect,0.250000X0.625000X-0.312500X0.625000X0.312500X-0.625000X0.312500X-0.625000X-0.312500X0*%
G04 APERTURE END LIST*
D10*
X172515601Y-100151485D02*
X172444173Y-100080057D01*
X172444173Y-100080057D02*
X172301316Y-100008628D01*
X172301316Y-100008628D02*
X171944173Y-100008628D01*
X171944173Y-100008628D02*
X171801316Y-100080057D01*
X171801316Y-100080057D02*
X171729887Y-100151485D01*
X171729887Y-100151485D02*
X171658458Y-100294342D01*
X171658458Y-100294342D02*
X171658458Y-100437200D01*
X171658458Y-100437200D02*
X171729887Y-100651485D01*
X171729887Y-100651485D02*
X172587030Y-101508628D01*
X172587030Y-101508628D02*
X171658458Y-101508628D01*
X170729887Y-100008628D02*
X170587030Y-100008628D01*
X170587030Y-100008628D02*
X170444173Y-100080057D01*
X170444173Y-100080057D02*
X170372745Y-100151485D01*
X170372745Y-100151485D02*
X170301316Y-100294342D01*
X170301316Y-100294342D02*
X170229887Y-100580057D01*
X170229887Y-100580057D02*
X170229887Y-100937200D01*
X170229887Y-100937200D02*
X170301316Y-101222914D01*
X170301316Y-101222914D02*
X170372745Y-101365771D01*
X170372745Y-101365771D02*
X170444173Y-101437200D01*
X170444173Y-101437200D02*
X170587030Y-101508628D01*
X170587030Y-101508628D02*
X170729887Y-101508628D01*
X170729887Y-101508628D02*
X170872745Y-101437200D01*
X170872745Y-101437200D02*
X170944173Y-101365771D01*
X170944173Y-101365771D02*
X171015602Y-101222914D01*
X171015602Y-101222914D02*
X171087030Y-100937200D01*
X171087030Y-100937200D02*
X171087030Y-100580057D01*
X171087030Y-100580057D02*
X171015602Y-100294342D01*
X171015602Y-100294342D02*
X170944173Y-100151485D01*
X170944173Y-100151485D02*
X170872745Y-100080057D01*
X170872745Y-100080057D02*
X170729887Y-100008628D01*
X169587031Y-101508628D02*
X169587031Y-100008628D01*
X169587031Y-100008628D02*
X169087031Y-101080057D01*
X169087031Y-101080057D02*
X168587031Y-100008628D01*
X168587031Y-100008628D02*
X168587031Y-101508628D01*
X171258458Y-71908628D02*
X172115601Y-71908628D01*
X171687030Y-71908628D02*
X171687030Y-70408628D01*
X171687030Y-70408628D02*
X171829887Y-70622914D01*
X171829887Y-70622914D02*
X171972744Y-70765771D01*
X171972744Y-70765771D02*
X172115601Y-70837200D01*
X170329887Y-70408628D02*
X170187030Y-70408628D01*
X170187030Y-70408628D02*
X170044173Y-70480057D01*
X170044173Y-70480057D02*
X169972745Y-70551485D01*
X169972745Y-70551485D02*
X169901316Y-70694342D01*
X169901316Y-70694342D02*
X169829887Y-70980057D01*
X169829887Y-70980057D02*
X169829887Y-71337200D01*
X169829887Y-71337200D02*
X169901316Y-71622914D01*
X169901316Y-71622914D02*
X169972745Y-71765771D01*
X169972745Y-71765771D02*
X170044173Y-71837200D01*
X170044173Y-71837200D02*
X170187030Y-71908628D01*
X170187030Y-71908628D02*
X170329887Y-71908628D01*
X170329887Y-71908628D02*
X170472745Y-71837200D01*
X170472745Y-71837200D02*
X170544173Y-71765771D01*
X170544173Y-71765771D02*
X170615602Y-71622914D01*
X170615602Y-71622914D02*
X170687030Y-71337200D01*
X170687030Y-71337200D02*
X170687030Y-70980057D01*
X170687030Y-70980057D02*
X170615602Y-70694342D01*
X170615602Y-70694342D02*
X170544173Y-70551485D01*
X170544173Y-70551485D02*
X170472745Y-70480057D01*
X170472745Y-70480057D02*
X170329887Y-70408628D01*
X169187031Y-71908628D02*
X169187031Y-70408628D01*
X169187031Y-70408628D02*
X168687031Y-71480057D01*
X168687031Y-71480057D02*
X168187031Y-70408628D01*
X168187031Y-70408628D02*
X168187031Y-71908628D01*
X172579887Y-130251485D02*
X172722744Y-130180057D01*
X172722744Y-130180057D02*
X172794173Y-130108628D01*
X172794173Y-130108628D02*
X172865601Y-129965771D01*
X172865601Y-129965771D02*
X172865601Y-129894342D01*
X172865601Y-129894342D02*
X172794173Y-129751485D01*
X172794173Y-129751485D02*
X172722744Y-129680057D01*
X172722744Y-129680057D02*
X172579887Y-129608628D01*
X172579887Y-129608628D02*
X172294173Y-129608628D01*
X172294173Y-129608628D02*
X172151316Y-129680057D01*
X172151316Y-129680057D02*
X172079887Y-129751485D01*
X172079887Y-129751485D02*
X172008458Y-129894342D01*
X172008458Y-129894342D02*
X172008458Y-129965771D01*
X172008458Y-129965771D02*
X172079887Y-130108628D01*
X172079887Y-130108628D02*
X172151316Y-130180057D01*
X172151316Y-130180057D02*
X172294173Y-130251485D01*
X172294173Y-130251485D02*
X172579887Y-130251485D01*
X172579887Y-130251485D02*
X172722744Y-130322914D01*
X172722744Y-130322914D02*
X172794173Y-130394342D01*
X172794173Y-130394342D02*
X172865601Y-130537200D01*
X172865601Y-130537200D02*
X172865601Y-130822914D01*
X172865601Y-130822914D02*
X172794173Y-130965771D01*
X172794173Y-130965771D02*
X172722744Y-131037200D01*
X172722744Y-131037200D02*
X172579887Y-131108628D01*
X172579887Y-131108628D02*
X172294173Y-131108628D01*
X172294173Y-131108628D02*
X172151316Y-131037200D01*
X172151316Y-131037200D02*
X172079887Y-130965771D01*
X172079887Y-130965771D02*
X172008458Y-130822914D01*
X172008458Y-130822914D02*
X172008458Y-130537200D01*
X172008458Y-130537200D02*
X172079887Y-130394342D01*
X172079887Y-130394342D02*
X172151316Y-130322914D01*
X172151316Y-130322914D02*
X172294173Y-130251485D01*
X171079887Y-129608628D02*
X170937030Y-129608628D01*
X170937030Y-129608628D02*
X170794173Y-129680057D01*
X170794173Y-129680057D02*
X170722745Y-129751485D01*
X170722745Y-129751485D02*
X170651316Y-129894342D01*
X170651316Y-129894342D02*
X170579887Y-130180057D01*
X170579887Y-130180057D02*
X170579887Y-130537200D01*
X170579887Y-130537200D02*
X170651316Y-130822914D01*
X170651316Y-130822914D02*
X170722745Y-130965771D01*
X170722745Y-130965771D02*
X170794173Y-131037200D01*
X170794173Y-131037200D02*
X170937030Y-131108628D01*
X170937030Y-131108628D02*
X171079887Y-131108628D01*
X171079887Y-131108628D02*
X171222745Y-131037200D01*
X171222745Y-131037200D02*
X171294173Y-130965771D01*
X171294173Y-130965771D02*
X171365602Y-130822914D01*
X171365602Y-130822914D02*
X171437030Y-130537200D01*
X171437030Y-130537200D02*
X171437030Y-130180057D01*
X171437030Y-130180057D02*
X171365602Y-129894342D01*
X171365602Y-129894342D02*
X171294173Y-129751485D01*
X171294173Y-129751485D02*
X171222745Y-129680057D01*
X171222745Y-129680057D02*
X171079887Y-129608628D01*
X169937031Y-131108628D02*
X169937031Y-129608628D01*
X169937031Y-129608628D02*
X169437031Y-130680057D01*
X169437031Y-130680057D02*
X168937031Y-129608628D01*
X168937031Y-129608628D02*
X168937031Y-131108628D01*
X172151316Y-115258628D02*
X172151316Y-116258628D01*
X172508458Y-114687200D02*
X172865601Y-115758628D01*
X172865601Y-115758628D02*
X171937030Y-115758628D01*
X171079887Y-114758628D02*
X170937030Y-114758628D01*
X170937030Y-114758628D02*
X170794173Y-114830057D01*
X170794173Y-114830057D02*
X170722745Y-114901485D01*
X170722745Y-114901485D02*
X170651316Y-115044342D01*
X170651316Y-115044342D02*
X170579887Y-115330057D01*
X170579887Y-115330057D02*
X170579887Y-115687200D01*
X170579887Y-115687200D02*
X170651316Y-115972914D01*
X170651316Y-115972914D02*
X170722745Y-116115771D01*
X170722745Y-116115771D02*
X170794173Y-116187200D01*
X170794173Y-116187200D02*
X170937030Y-116258628D01*
X170937030Y-116258628D02*
X171079887Y-116258628D01*
X171079887Y-116258628D02*
X171222745Y-116187200D01*
X171222745Y-116187200D02*
X171294173Y-116115771D01*
X171294173Y-116115771D02*
X171365602Y-115972914D01*
X171365602Y-115972914D02*
X171437030Y-115687200D01*
X171437030Y-115687200D02*
X171437030Y-115330057D01*
X171437030Y-115330057D02*
X171365602Y-115044342D01*
X171365602Y-115044342D02*
X171294173Y-114901485D01*
X171294173Y-114901485D02*
X171222745Y-114830057D01*
X171222745Y-114830057D02*
X171079887Y-114758628D01*
X169937031Y-116258628D02*
X169937031Y-114758628D01*
X169937031Y-114758628D02*
X169437031Y-115830057D01*
X169437031Y-115830057D02*
X168937031Y-114758628D01*
X168937031Y-114758628D02*
X168937031Y-116258628D01*
X171458458Y-86608628D02*
X172315601Y-86608628D01*
X171887030Y-86608628D02*
X171887030Y-85108628D01*
X171887030Y-85108628D02*
X172029887Y-85322914D01*
X172029887Y-85322914D02*
X172172744Y-85465771D01*
X172172744Y-85465771D02*
X172315601Y-85537200D01*
X170101316Y-85108628D02*
X170815602Y-85108628D01*
X170815602Y-85108628D02*
X170887030Y-85822914D01*
X170887030Y-85822914D02*
X170815602Y-85751485D01*
X170815602Y-85751485D02*
X170672745Y-85680057D01*
X170672745Y-85680057D02*
X170315602Y-85680057D01*
X170315602Y-85680057D02*
X170172745Y-85751485D01*
X170172745Y-85751485D02*
X170101316Y-85822914D01*
X170101316Y-85822914D02*
X170029887Y-85965771D01*
X170029887Y-85965771D02*
X170029887Y-86322914D01*
X170029887Y-86322914D02*
X170101316Y-86465771D01*
X170101316Y-86465771D02*
X170172745Y-86537200D01*
X170172745Y-86537200D02*
X170315602Y-86608628D01*
X170315602Y-86608628D02*
X170672745Y-86608628D01*
X170672745Y-86608628D02*
X170815602Y-86537200D01*
X170815602Y-86537200D02*
X170887030Y-86465771D01*
X169387031Y-86608628D02*
X169387031Y-85108628D01*
X169387031Y-85108628D02*
X168887031Y-86180057D01*
X168887031Y-86180057D02*
X168387031Y-85108628D01*
X168387031Y-85108628D02*
X168387031Y-86608628D01*
X143525125Y-56247438D02*
X143525125Y-54247438D01*
X143525125Y-54247438D02*
X142763220Y-54247438D01*
X142763220Y-54247438D02*
X142572744Y-54342676D01*
X142572744Y-54342676D02*
X142477506Y-54437914D01*
X142477506Y-54437914D02*
X142382268Y-54628390D01*
X142382268Y-54628390D02*
X142382268Y-54914104D01*
X142382268Y-54914104D02*
X142477506Y-55104580D01*
X142477506Y-55104580D02*
X142572744Y-55199819D01*
X142572744Y-55199819D02*
X142763220Y-55295057D01*
X142763220Y-55295057D02*
X143525125Y-55295057D01*
X141620363Y-55676009D02*
X140667982Y-55676009D01*
X141810839Y-56247438D02*
X141144173Y-54247438D01*
X141144173Y-54247438D02*
X140477506Y-56247438D01*
X183920363Y-55676009D02*
X182967982Y-55676009D01*
X184110839Y-56247438D02*
X183444173Y-54247438D01*
X183444173Y-54247438D02*
X182777506Y-56247438D01*
X182110839Y-56247438D02*
X182110839Y-54247438D01*
X182110839Y-54247438D02*
X180967982Y-56247438D01*
X180967982Y-56247438D02*
X180967982Y-54247438D01*
X180301315Y-54247438D02*
X179158458Y-54247438D01*
X179729887Y-56247438D02*
X179729887Y-54247438D01*
X113379268Y-56147438D02*
X114045935Y-55195057D01*
X114522125Y-56147438D02*
X114522125Y-54147438D01*
X114522125Y-54147438D02*
X113760220Y-54147438D01*
X113760220Y-54147438D02*
X113569744Y-54242676D01*
X113569744Y-54242676D02*
X113474506Y-54337914D01*
X113474506Y-54337914D02*
X113379268Y-54528390D01*
X113379268Y-54528390D02*
X113379268Y-54814104D01*
X113379268Y-54814104D02*
X113474506Y-55004580D01*
X113474506Y-55004580D02*
X113569744Y-55099819D01*
X113569744Y-55099819D02*
X113760220Y-55195057D01*
X113760220Y-55195057D02*
X114522125Y-55195057D01*
X112712601Y-54147438D02*
X111379268Y-56147438D01*
X111379268Y-54147438D02*
X112712601Y-56147438D01*
X180279166Y-139454819D02*
X180755356Y-139454819D01*
X180755356Y-139454819D02*
X180755356Y-138454819D01*
X179469642Y-138454819D02*
X179945832Y-138454819D01*
X179945832Y-138454819D02*
X179993451Y-138931009D01*
X179993451Y-138931009D02*
X179945832Y-138883390D01*
X179945832Y-138883390D02*
X179850594Y-138835771D01*
X179850594Y-138835771D02*
X179612499Y-138835771D01*
X179612499Y-138835771D02*
X179517261Y-138883390D01*
X179517261Y-138883390D02*
X179469642Y-138931009D01*
X179469642Y-138931009D02*
X179422023Y-139026247D01*
X179422023Y-139026247D02*
X179422023Y-139264342D01*
X179422023Y-139264342D02*
X179469642Y-139359580D01*
X179469642Y-139359580D02*
X179517261Y-139407200D01*
X179517261Y-139407200D02*
X179612499Y-139454819D01*
X179612499Y-139454819D02*
X179850594Y-139454819D01*
X179850594Y-139454819D02*
X179945832Y-139407200D01*
X179945832Y-139407200D02*
X179993451Y-139359580D01*
X125842857Y-70654819D02*
X126176190Y-70178628D01*
X126414285Y-70654819D02*
X126414285Y-69654819D01*
X126414285Y-69654819D02*
X126033333Y-69654819D01*
X126033333Y-69654819D02*
X125938095Y-69702438D01*
X125938095Y-69702438D02*
X125890476Y-69750057D01*
X125890476Y-69750057D02*
X125842857Y-69845295D01*
X125842857Y-69845295D02*
X125842857Y-69988152D01*
X125842857Y-69988152D02*
X125890476Y-70083390D01*
X125890476Y-70083390D02*
X125938095Y-70131009D01*
X125938095Y-70131009D02*
X126033333Y-70178628D01*
X126033333Y-70178628D02*
X126414285Y-70178628D01*
X124890476Y-70654819D02*
X125461904Y-70654819D01*
X125176190Y-70654819D02*
X125176190Y-69654819D01*
X125176190Y-69654819D02*
X125271428Y-69797676D01*
X125271428Y-69797676D02*
X125366666Y-69892914D01*
X125366666Y-69892914D02*
X125461904Y-69940533D01*
X124271428Y-69654819D02*
X124176190Y-69654819D01*
X124176190Y-69654819D02*
X124080952Y-69702438D01*
X124080952Y-69702438D02*
X124033333Y-69750057D01*
X124033333Y-69750057D02*
X123985714Y-69845295D01*
X123985714Y-69845295D02*
X123938095Y-70035771D01*
X123938095Y-70035771D02*
X123938095Y-70273866D01*
X123938095Y-70273866D02*
X123985714Y-70464342D01*
X123985714Y-70464342D02*
X124033333Y-70559580D01*
X124033333Y-70559580D02*
X124080952Y-70607200D01*
X124080952Y-70607200D02*
X124176190Y-70654819D01*
X124176190Y-70654819D02*
X124271428Y-70654819D01*
X124271428Y-70654819D02*
X124366666Y-70607200D01*
X124366666Y-70607200D02*
X124414285Y-70559580D01*
X124414285Y-70559580D02*
X124461904Y-70464342D01*
X124461904Y-70464342D02*
X124509523Y-70273866D01*
X124509523Y-70273866D02*
X124509523Y-70035771D01*
X124509523Y-70035771D02*
X124461904Y-69845295D01*
X124461904Y-69845295D02*
X124414285Y-69750057D01*
X124414285Y-69750057D02*
X124366666Y-69702438D01*
X124366666Y-69702438D02*
X124271428Y-69654819D01*
X125961904Y-71488152D02*
X125961904Y-72154819D01*
X126199999Y-71107200D02*
X126438094Y-71821485D01*
X126438094Y-71821485D02*
X125819047Y-71821485D01*
X125533332Y-71154819D02*
X124866666Y-71154819D01*
X124866666Y-71154819D02*
X125295237Y-72154819D01*
X124295237Y-71154819D02*
X124199999Y-71154819D01*
X124199999Y-71154819D02*
X124104761Y-71202438D01*
X124104761Y-71202438D02*
X124057142Y-71250057D01*
X124057142Y-71250057D02*
X124009523Y-71345295D01*
X124009523Y-71345295D02*
X123961904Y-71535771D01*
X123961904Y-71535771D02*
X123961904Y-71773866D01*
X123961904Y-71773866D02*
X124009523Y-71964342D01*
X124009523Y-71964342D02*
X124057142Y-72059580D01*
X124057142Y-72059580D02*
X124104761Y-72107200D01*
X124104761Y-72107200D02*
X124199999Y-72154819D01*
X124199999Y-72154819D02*
X124295237Y-72154819D01*
X124295237Y-72154819D02*
X124390475Y-72107200D01*
X124390475Y-72107200D02*
X124438094Y-72059580D01*
X124438094Y-72059580D02*
X124485713Y-71964342D01*
X124485713Y-71964342D02*
X124533332Y-71773866D01*
X124533332Y-71773866D02*
X124533332Y-71535771D01*
X124533332Y-71535771D02*
X124485713Y-71345295D01*
X124485713Y-71345295D02*
X124438094Y-71250057D01*
X124438094Y-71250057D02*
X124390475Y-71202438D01*
X124390475Y-71202438D02*
X124295237Y-71154819D01*
X167266666Y-143854819D02*
X167742856Y-143854819D01*
X167742856Y-143854819D02*
X167742856Y-142854819D01*
X166504761Y-143188152D02*
X166504761Y-143854819D01*
X166742856Y-142807200D02*
X166980951Y-143521485D01*
X166980951Y-143521485D02*
X166361904Y-143521485D01*
X161416666Y-132454819D02*
X161892856Y-132454819D01*
X161892856Y-132454819D02*
X161892856Y-131454819D01*
X161178570Y-131454819D02*
X160559523Y-131454819D01*
X160559523Y-131454819D02*
X160892856Y-131835771D01*
X160892856Y-131835771D02*
X160749999Y-131835771D01*
X160749999Y-131835771D02*
X160654761Y-131883390D01*
X160654761Y-131883390D02*
X160607142Y-131931009D01*
X160607142Y-131931009D02*
X160559523Y-132026247D01*
X160559523Y-132026247D02*
X160559523Y-132264342D01*
X160559523Y-132264342D02*
X160607142Y-132359580D01*
X160607142Y-132359580D02*
X160654761Y-132407200D01*
X160654761Y-132407200D02*
X160749999Y-132454819D01*
X160749999Y-132454819D02*
X161035713Y-132454819D01*
X161035713Y-132454819D02*
X161130951Y-132407200D01*
X161130951Y-132407200D02*
X161178570Y-132359580D01*
X167216666Y-129404819D02*
X167692856Y-129404819D01*
X167692856Y-129404819D02*
X167692856Y-128404819D01*
X166978570Y-128404819D02*
X166311904Y-128404819D01*
X166311904Y-128404819D02*
X166740475Y-129404819D01*
X161266666Y-102754819D02*
X161742856Y-102754819D01*
X161742856Y-102754819D02*
X161742856Y-101754819D01*
X160885713Y-102754819D02*
X160695237Y-102754819D01*
X160695237Y-102754819D02*
X160599999Y-102707200D01*
X160599999Y-102707200D02*
X160552380Y-102659580D01*
X160552380Y-102659580D02*
X160457142Y-102516723D01*
X160457142Y-102516723D02*
X160409523Y-102326247D01*
X160409523Y-102326247D02*
X160409523Y-101945295D01*
X160409523Y-101945295D02*
X160457142Y-101850057D01*
X160457142Y-101850057D02*
X160504761Y-101802438D01*
X160504761Y-101802438D02*
X160599999Y-101754819D01*
X160599999Y-101754819D02*
X160790475Y-101754819D01*
X160790475Y-101754819D02*
X160885713Y-101802438D01*
X160885713Y-101802438D02*
X160933332Y-101850057D01*
X160933332Y-101850057D02*
X160980951Y-101945295D01*
X160980951Y-101945295D02*
X160980951Y-102183390D01*
X160980951Y-102183390D02*
X160933332Y-102278628D01*
X160933332Y-102278628D02*
X160885713Y-102326247D01*
X160885713Y-102326247D02*
X160790475Y-102373866D01*
X160790475Y-102373866D02*
X160599999Y-102373866D01*
X160599999Y-102373866D02*
X160504761Y-102326247D01*
X160504761Y-102326247D02*
X160457142Y-102278628D01*
X160457142Y-102278628D02*
X160409523Y-102183390D01*
X132256666Y-72162519D02*
X132589999Y-71686328D01*
X132828094Y-72162519D02*
X132828094Y-71162519D01*
X132828094Y-71162519D02*
X132447142Y-71162519D01*
X132447142Y-71162519D02*
X132351904Y-71210138D01*
X132351904Y-71210138D02*
X132304285Y-71257757D01*
X132304285Y-71257757D02*
X132256666Y-71352995D01*
X132256666Y-71352995D02*
X132256666Y-71495852D01*
X132256666Y-71495852D02*
X132304285Y-71591090D01*
X132304285Y-71591090D02*
X132351904Y-71638709D01*
X132351904Y-71638709D02*
X132447142Y-71686328D01*
X132447142Y-71686328D02*
X132828094Y-71686328D01*
X131780475Y-72162519D02*
X131589999Y-72162519D01*
X131589999Y-72162519D02*
X131494761Y-72114900D01*
X131494761Y-72114900D02*
X131447142Y-72067280D01*
X131447142Y-72067280D02*
X131351904Y-71924423D01*
X131351904Y-71924423D02*
X131304285Y-71733947D01*
X131304285Y-71733947D02*
X131304285Y-71352995D01*
X131304285Y-71352995D02*
X131351904Y-71257757D01*
X131351904Y-71257757D02*
X131399523Y-71210138D01*
X131399523Y-71210138D02*
X131494761Y-71162519D01*
X131494761Y-71162519D02*
X131685237Y-71162519D01*
X131685237Y-71162519D02*
X131780475Y-71210138D01*
X131780475Y-71210138D02*
X131828094Y-71257757D01*
X131828094Y-71257757D02*
X131875713Y-71352995D01*
X131875713Y-71352995D02*
X131875713Y-71591090D01*
X131875713Y-71591090D02*
X131828094Y-71686328D01*
X131828094Y-71686328D02*
X131780475Y-71733947D01*
X131780475Y-71733947D02*
X131685237Y-71781566D01*
X131685237Y-71781566D02*
X131494761Y-71781566D01*
X131494761Y-71781566D02*
X131399523Y-71733947D01*
X131399523Y-71733947D02*
X131351904Y-71686328D01*
X131351904Y-71686328D02*
X131304285Y-71591090D01*
X133328095Y-72892852D02*
X133328095Y-73559519D01*
X133566190Y-72511900D02*
X133804285Y-73226185D01*
X133804285Y-73226185D02*
X133185238Y-73226185D01*
X132899523Y-72559519D02*
X132232857Y-72559519D01*
X132232857Y-72559519D02*
X132661428Y-73559519D01*
X131661428Y-72559519D02*
X131566190Y-72559519D01*
X131566190Y-72559519D02*
X131470952Y-72607138D01*
X131470952Y-72607138D02*
X131423333Y-72654757D01*
X131423333Y-72654757D02*
X131375714Y-72749995D01*
X131375714Y-72749995D02*
X131328095Y-72940471D01*
X131328095Y-72940471D02*
X131328095Y-73178566D01*
X131328095Y-73178566D02*
X131375714Y-73369042D01*
X131375714Y-73369042D02*
X131423333Y-73464280D01*
X131423333Y-73464280D02*
X131470952Y-73511900D01*
X131470952Y-73511900D02*
X131566190Y-73559519D01*
X131566190Y-73559519D02*
X131661428Y-73559519D01*
X131661428Y-73559519D02*
X131756666Y-73511900D01*
X131756666Y-73511900D02*
X131804285Y-73464280D01*
X131804285Y-73464280D02*
X131851904Y-73369042D01*
X131851904Y-73369042D02*
X131899523Y-73178566D01*
X131899523Y-73178566D02*
X131899523Y-72940471D01*
X131899523Y-72940471D02*
X131851904Y-72749995D01*
X131851904Y-72749995D02*
X131804285Y-72654757D01*
X131804285Y-72654757D02*
X131756666Y-72607138D01*
X131756666Y-72607138D02*
X131661428Y-72559519D01*
X130709047Y-72559519D02*
X130613809Y-72559519D01*
X130613809Y-72559519D02*
X130518571Y-72607138D01*
X130518571Y-72607138D02*
X130470952Y-72654757D01*
X130470952Y-72654757D02*
X130423333Y-72749995D01*
X130423333Y-72749995D02*
X130375714Y-72940471D01*
X130375714Y-72940471D02*
X130375714Y-73178566D01*
X130375714Y-73178566D02*
X130423333Y-73369042D01*
X130423333Y-73369042D02*
X130470952Y-73464280D01*
X130470952Y-73464280D02*
X130518571Y-73511900D01*
X130518571Y-73511900D02*
X130613809Y-73559519D01*
X130613809Y-73559519D02*
X130709047Y-73559519D01*
X130709047Y-73559519D02*
X130804285Y-73511900D01*
X130804285Y-73511900D02*
X130851904Y-73464280D01*
X130851904Y-73464280D02*
X130899523Y-73369042D01*
X130899523Y-73369042D02*
X130947142Y-73178566D01*
X130947142Y-73178566D02*
X130947142Y-72940471D01*
X130947142Y-72940471D02*
X130899523Y-72749995D01*
X130899523Y-72749995D02*
X130851904Y-72654757D01*
X130851904Y-72654757D02*
X130804285Y-72607138D01*
X130804285Y-72607138D02*
X130709047Y-72559519D01*
X167442857Y-114604819D02*
X167919047Y-114604819D01*
X167919047Y-114604819D02*
X167919047Y-113604819D01*
X166585714Y-114604819D02*
X167157142Y-114604819D01*
X166871428Y-114604819D02*
X166871428Y-113604819D01*
X166871428Y-113604819D02*
X166966666Y-113747676D01*
X166966666Y-113747676D02*
X167061904Y-113842914D01*
X167061904Y-113842914D02*
X167157142Y-113890533D01*
X165966666Y-113604819D02*
X165871428Y-113604819D01*
X165871428Y-113604819D02*
X165776190Y-113652438D01*
X165776190Y-113652438D02*
X165728571Y-113700057D01*
X165728571Y-113700057D02*
X165680952Y-113795295D01*
X165680952Y-113795295D02*
X165633333Y-113985771D01*
X165633333Y-113985771D02*
X165633333Y-114223866D01*
X165633333Y-114223866D02*
X165680952Y-114414342D01*
X165680952Y-114414342D02*
X165728571Y-114509580D01*
X165728571Y-114509580D02*
X165776190Y-114557200D01*
X165776190Y-114557200D02*
X165871428Y-114604819D01*
X165871428Y-114604819D02*
X165966666Y-114604819D01*
X165966666Y-114604819D02*
X166061904Y-114557200D01*
X166061904Y-114557200D02*
X166109523Y-114509580D01*
X166109523Y-114509580D02*
X166157142Y-114414342D01*
X166157142Y-114414342D02*
X166204761Y-114223866D01*
X166204761Y-114223866D02*
X166204761Y-113985771D01*
X166204761Y-113985771D02*
X166157142Y-113795295D01*
X166157142Y-113795295D02*
X166109523Y-113700057D01*
X166109523Y-113700057D02*
X166061904Y-113652438D01*
X166061904Y-113652438D02*
X165966666Y-113604819D01*
X180119105Y-80264819D02*
X180595295Y-80264819D01*
X180595295Y-80264819D02*
X180595295Y-79264819D01*
X179261962Y-80264819D02*
X179833390Y-80264819D01*
X179547676Y-80264819D02*
X179547676Y-79264819D01*
X179547676Y-79264819D02*
X179642914Y-79407676D01*
X179642914Y-79407676D02*
X179738152Y-79502914D01*
X179738152Y-79502914D02*
X179833390Y-79550533D01*
X178928628Y-79264819D02*
X178261962Y-79264819D01*
X178261962Y-79264819D02*
X178690533Y-80264819D01*
X117666666Y-115354819D02*
X117999999Y-114878628D01*
X118238094Y-115354819D02*
X118238094Y-114354819D01*
X118238094Y-114354819D02*
X117857142Y-114354819D01*
X117857142Y-114354819D02*
X117761904Y-114402438D01*
X117761904Y-114402438D02*
X117714285Y-114450057D01*
X117714285Y-114450057D02*
X117666666Y-114545295D01*
X117666666Y-114545295D02*
X117666666Y-114688152D01*
X117666666Y-114688152D02*
X117714285Y-114783390D01*
X117714285Y-114783390D02*
X117761904Y-114831009D01*
X117761904Y-114831009D02*
X117857142Y-114878628D01*
X117857142Y-114878628D02*
X118238094Y-114878628D01*
X117095237Y-114783390D02*
X117190475Y-114735771D01*
X117190475Y-114735771D02*
X117238094Y-114688152D01*
X117238094Y-114688152D02*
X117285713Y-114592914D01*
X117285713Y-114592914D02*
X117285713Y-114545295D01*
X117285713Y-114545295D02*
X117238094Y-114450057D01*
X117238094Y-114450057D02*
X117190475Y-114402438D01*
X117190475Y-114402438D02*
X117095237Y-114354819D01*
X117095237Y-114354819D02*
X116904761Y-114354819D01*
X116904761Y-114354819D02*
X116809523Y-114402438D01*
X116809523Y-114402438D02*
X116761904Y-114450057D01*
X116761904Y-114450057D02*
X116714285Y-114545295D01*
X116714285Y-114545295D02*
X116714285Y-114592914D01*
X116714285Y-114592914D02*
X116761904Y-114688152D01*
X116761904Y-114688152D02*
X116809523Y-114735771D01*
X116809523Y-114735771D02*
X116904761Y-114783390D01*
X116904761Y-114783390D02*
X117095237Y-114783390D01*
X117095237Y-114783390D02*
X117190475Y-114831009D01*
X117190475Y-114831009D02*
X117238094Y-114878628D01*
X117238094Y-114878628D02*
X117285713Y-114973866D01*
X117285713Y-114973866D02*
X117285713Y-115164342D01*
X117285713Y-115164342D02*
X117238094Y-115259580D01*
X117238094Y-115259580D02*
X117190475Y-115307200D01*
X117190475Y-115307200D02*
X117095237Y-115354819D01*
X117095237Y-115354819D02*
X116904761Y-115354819D01*
X116904761Y-115354819D02*
X116809523Y-115307200D01*
X116809523Y-115307200D02*
X116761904Y-115259580D01*
X116761904Y-115259580D02*
X116714285Y-115164342D01*
X116714285Y-115164342D02*
X116714285Y-114973866D01*
X116714285Y-114973866D02*
X116761904Y-114878628D01*
X116761904Y-114878628D02*
X116809523Y-114831009D01*
X116809523Y-114831009D02*
X116904761Y-114783390D01*
X115647618Y-114354819D02*
X115552380Y-114354819D01*
X115552380Y-114354819D02*
X115457142Y-114402438D01*
X115457142Y-114402438D02*
X115409523Y-114450057D01*
X115409523Y-114450057D02*
X115361904Y-114545295D01*
X115361904Y-114545295D02*
X115314285Y-114735771D01*
X115314285Y-114735771D02*
X115314285Y-114973866D01*
X115314285Y-114973866D02*
X115361904Y-115164342D01*
X115361904Y-115164342D02*
X115409523Y-115259580D01*
X115409523Y-115259580D02*
X115457142Y-115307200D01*
X115457142Y-115307200D02*
X115552380Y-115354819D01*
X115552380Y-115354819D02*
X115647618Y-115354819D01*
X115647618Y-115354819D02*
X115742856Y-115307200D01*
X115742856Y-115307200D02*
X115790475Y-115259580D01*
X115790475Y-115259580D02*
X115838094Y-115164342D01*
X115838094Y-115164342D02*
X115885713Y-114973866D01*
X115885713Y-114973866D02*
X115885713Y-114735771D01*
X115885713Y-114735771D02*
X115838094Y-114545295D01*
X115838094Y-114545295D02*
X115790475Y-114450057D01*
X115790475Y-114450057D02*
X115742856Y-114402438D01*
X115742856Y-114402438D02*
X115647618Y-114354819D01*
X161792857Y-73004819D02*
X162269047Y-73004819D01*
X162269047Y-73004819D02*
X162269047Y-72004819D01*
X160935714Y-73004819D02*
X161507142Y-73004819D01*
X161221428Y-73004819D02*
X161221428Y-72004819D01*
X161221428Y-72004819D02*
X161316666Y-72147676D01*
X161316666Y-72147676D02*
X161411904Y-72242914D01*
X161411904Y-72242914D02*
X161507142Y-72290533D01*
X160030952Y-72004819D02*
X160507142Y-72004819D01*
X160507142Y-72004819D02*
X160554761Y-72481009D01*
X160554761Y-72481009D02*
X160507142Y-72433390D01*
X160507142Y-72433390D02*
X160411904Y-72385771D01*
X160411904Y-72385771D02*
X160173809Y-72385771D01*
X160173809Y-72385771D02*
X160078571Y-72433390D01*
X160078571Y-72433390D02*
X160030952Y-72481009D01*
X160030952Y-72481009D02*
X159983333Y-72576247D01*
X159983333Y-72576247D02*
X159983333Y-72814342D01*
X159983333Y-72814342D02*
X160030952Y-72909580D01*
X160030952Y-72909580D02*
X160078571Y-72957200D01*
X160078571Y-72957200D02*
X160173809Y-73004819D01*
X160173809Y-73004819D02*
X160411904Y-73004819D01*
X160411904Y-73004819D02*
X160507142Y-72957200D01*
X160507142Y-72957200D02*
X160554761Y-72909580D01*
X180480357Y-109854819D02*
X180956547Y-109854819D01*
X180956547Y-109854819D02*
X180956547Y-108854819D01*
X179623214Y-109854819D02*
X180194642Y-109854819D01*
X179908928Y-109854819D02*
X179908928Y-108854819D01*
X179908928Y-108854819D02*
X180004166Y-108997676D01*
X180004166Y-108997676D02*
X180099404Y-109092914D01*
X180099404Y-109092914D02*
X180194642Y-109140533D01*
X178670833Y-109854819D02*
X179242261Y-109854819D01*
X178956547Y-109854819D02*
X178956547Y-108854819D01*
X178956547Y-108854819D02*
X179051785Y-108997676D01*
X179051785Y-108997676D02*
X179147023Y-109092914D01*
X179147023Y-109092914D02*
X179242261Y-109140533D01*
X167242857Y-99654819D02*
X167719047Y-99654819D01*
X167719047Y-99654819D02*
X167719047Y-98654819D01*
X166385714Y-99654819D02*
X166957142Y-99654819D01*
X166671428Y-99654819D02*
X166671428Y-98654819D01*
X166671428Y-98654819D02*
X166766666Y-98797676D01*
X166766666Y-98797676D02*
X166861904Y-98892914D01*
X166861904Y-98892914D02*
X166957142Y-98940533D01*
X166052380Y-98654819D02*
X165433333Y-98654819D01*
X165433333Y-98654819D02*
X165766666Y-99035771D01*
X165766666Y-99035771D02*
X165623809Y-99035771D01*
X165623809Y-99035771D02*
X165528571Y-99083390D01*
X165528571Y-99083390D02*
X165480952Y-99131009D01*
X165480952Y-99131009D02*
X165433333Y-99226247D01*
X165433333Y-99226247D02*
X165433333Y-99464342D01*
X165433333Y-99464342D02*
X165480952Y-99559580D01*
X165480952Y-99559580D02*
X165528571Y-99607200D01*
X165528571Y-99607200D02*
X165623809Y-99654819D01*
X165623809Y-99654819D02*
X165909523Y-99654819D01*
X165909523Y-99654819D02*
X166004761Y-99607200D01*
X166004761Y-99607200D02*
X166052380Y-99559580D01*
X161942857Y-87654819D02*
X162419047Y-87654819D01*
X162419047Y-87654819D02*
X162419047Y-86654819D01*
X161085714Y-87654819D02*
X161657142Y-87654819D01*
X161371428Y-87654819D02*
X161371428Y-86654819D01*
X161371428Y-86654819D02*
X161466666Y-86797676D01*
X161466666Y-86797676D02*
X161561904Y-86892914D01*
X161561904Y-86892914D02*
X161657142Y-86940533D01*
X160704761Y-86750057D02*
X160657142Y-86702438D01*
X160657142Y-86702438D02*
X160561904Y-86654819D01*
X160561904Y-86654819D02*
X160323809Y-86654819D01*
X160323809Y-86654819D02*
X160228571Y-86702438D01*
X160228571Y-86702438D02*
X160180952Y-86750057D01*
X160180952Y-86750057D02*
X160133333Y-86845295D01*
X160133333Y-86845295D02*
X160133333Y-86940533D01*
X160133333Y-86940533D02*
X160180952Y-87083390D01*
X160180952Y-87083390D02*
X160752380Y-87654819D01*
X160752380Y-87654819D02*
X160133333Y-87654819D01*
X180254166Y-124654819D02*
X180730356Y-124654819D01*
X180730356Y-124654819D02*
X180730356Y-123654819D01*
X179777975Y-124083390D02*
X179873213Y-124035771D01*
X179873213Y-124035771D02*
X179920832Y-123988152D01*
X179920832Y-123988152D02*
X179968451Y-123892914D01*
X179968451Y-123892914D02*
X179968451Y-123845295D01*
X179968451Y-123845295D02*
X179920832Y-123750057D01*
X179920832Y-123750057D02*
X179873213Y-123702438D01*
X179873213Y-123702438D02*
X179777975Y-123654819D01*
X179777975Y-123654819D02*
X179587499Y-123654819D01*
X179587499Y-123654819D02*
X179492261Y-123702438D01*
X179492261Y-123702438D02*
X179444642Y-123750057D01*
X179444642Y-123750057D02*
X179397023Y-123845295D01*
X179397023Y-123845295D02*
X179397023Y-123892914D01*
X179397023Y-123892914D02*
X179444642Y-123988152D01*
X179444642Y-123988152D02*
X179492261Y-124035771D01*
X179492261Y-124035771D02*
X179587499Y-124083390D01*
X179587499Y-124083390D02*
X179777975Y-124083390D01*
X179777975Y-124083390D02*
X179873213Y-124131009D01*
X179873213Y-124131009D02*
X179920832Y-124178628D01*
X179920832Y-124178628D02*
X179968451Y-124273866D01*
X179968451Y-124273866D02*
X179968451Y-124464342D01*
X179968451Y-124464342D02*
X179920832Y-124559580D01*
X179920832Y-124559580D02*
X179873213Y-124607200D01*
X179873213Y-124607200D02*
X179777975Y-124654819D01*
X179777975Y-124654819D02*
X179587499Y-124654819D01*
X179587499Y-124654819D02*
X179492261Y-124607200D01*
X179492261Y-124607200D02*
X179444642Y-124559580D01*
X179444642Y-124559580D02*
X179397023Y-124464342D01*
X179397023Y-124464342D02*
X179397023Y-124273866D01*
X179397023Y-124273866D02*
X179444642Y-124178628D01*
X179444642Y-124178628D02*
X179492261Y-124131009D01*
X179492261Y-124131009D02*
X179587499Y-124083390D01*
X167092857Y-85004819D02*
X167569047Y-85004819D01*
X167569047Y-85004819D02*
X167569047Y-84004819D01*
X166235714Y-85004819D02*
X166807142Y-85004819D01*
X166521428Y-85004819D02*
X166521428Y-84004819D01*
X166521428Y-84004819D02*
X166616666Y-84147676D01*
X166616666Y-84147676D02*
X166711904Y-84242914D01*
X166711904Y-84242914D02*
X166807142Y-84290533D01*
X165378571Y-84004819D02*
X165569047Y-84004819D01*
X165569047Y-84004819D02*
X165664285Y-84052438D01*
X165664285Y-84052438D02*
X165711904Y-84100057D01*
X165711904Y-84100057D02*
X165807142Y-84242914D01*
X165807142Y-84242914D02*
X165854761Y-84433390D01*
X165854761Y-84433390D02*
X165854761Y-84814342D01*
X165854761Y-84814342D02*
X165807142Y-84909580D01*
X165807142Y-84909580D02*
X165759523Y-84957200D01*
X165759523Y-84957200D02*
X165664285Y-85004819D01*
X165664285Y-85004819D02*
X165473809Y-85004819D01*
X165473809Y-85004819D02*
X165378571Y-84957200D01*
X165378571Y-84957200D02*
X165330952Y-84909580D01*
X165330952Y-84909580D02*
X165283333Y-84814342D01*
X165283333Y-84814342D02*
X165283333Y-84576247D01*
X165283333Y-84576247D02*
X165330952Y-84481009D01*
X165330952Y-84481009D02*
X165378571Y-84433390D01*
X165378571Y-84433390D02*
X165473809Y-84385771D01*
X165473809Y-84385771D02*
X165664285Y-84385771D01*
X165664285Y-84385771D02*
X165759523Y-84433390D01*
X165759523Y-84433390D02*
X165807142Y-84481009D01*
X165807142Y-84481009D02*
X165854761Y-84576247D01*
X113166666Y-115354819D02*
X113499999Y-114878628D01*
X113738094Y-115354819D02*
X113738094Y-114354819D01*
X113738094Y-114354819D02*
X113357142Y-114354819D01*
X113357142Y-114354819D02*
X113261904Y-114402438D01*
X113261904Y-114402438D02*
X113214285Y-114450057D01*
X113214285Y-114450057D02*
X113166666Y-114545295D01*
X113166666Y-114545295D02*
X113166666Y-114688152D01*
X113166666Y-114688152D02*
X113214285Y-114783390D01*
X113214285Y-114783390D02*
X113261904Y-114831009D01*
X113261904Y-114831009D02*
X113357142Y-114878628D01*
X113357142Y-114878628D02*
X113738094Y-114878628D01*
X112833332Y-114354819D02*
X112166666Y-114354819D01*
X112166666Y-114354819D02*
X112595237Y-115354819D01*
X111147618Y-114354819D02*
X111052380Y-114354819D01*
X111052380Y-114354819D02*
X110957142Y-114402438D01*
X110957142Y-114402438D02*
X110909523Y-114450057D01*
X110909523Y-114450057D02*
X110861904Y-114545295D01*
X110861904Y-114545295D02*
X110814285Y-114735771D01*
X110814285Y-114735771D02*
X110814285Y-114973866D01*
X110814285Y-114973866D02*
X110861904Y-115164342D01*
X110861904Y-115164342D02*
X110909523Y-115259580D01*
X110909523Y-115259580D02*
X110957142Y-115307200D01*
X110957142Y-115307200D02*
X111052380Y-115354819D01*
X111052380Y-115354819D02*
X111147618Y-115354819D01*
X111147618Y-115354819D02*
X111242856Y-115307200D01*
X111242856Y-115307200D02*
X111290475Y-115259580D01*
X111290475Y-115259580D02*
X111338094Y-115164342D01*
X111338094Y-115164342D02*
X111385713Y-114973866D01*
X111385713Y-114973866D02*
X111385713Y-114735771D01*
X111385713Y-114735771D02*
X111338094Y-114545295D01*
X111338094Y-114545295D02*
X111290475Y-114450057D01*
X111290475Y-114450057D02*
X111242856Y-114402438D01*
X111242856Y-114402438D02*
X111147618Y-114354819D01*
X161266666Y-117454819D02*
X161742856Y-117454819D01*
X161742856Y-117454819D02*
X161742856Y-116454819D01*
X160504761Y-116454819D02*
X160695237Y-116454819D01*
X160695237Y-116454819D02*
X160790475Y-116502438D01*
X160790475Y-116502438D02*
X160838094Y-116550057D01*
X160838094Y-116550057D02*
X160933332Y-116692914D01*
X160933332Y-116692914D02*
X160980951Y-116883390D01*
X160980951Y-116883390D02*
X160980951Y-117264342D01*
X160980951Y-117264342D02*
X160933332Y-117359580D01*
X160933332Y-117359580D02*
X160885713Y-117407200D01*
X160885713Y-117407200D02*
X160790475Y-117454819D01*
X160790475Y-117454819D02*
X160599999Y-117454819D01*
X160599999Y-117454819D02*
X160504761Y-117407200D01*
X160504761Y-117407200D02*
X160457142Y-117359580D01*
X160457142Y-117359580D02*
X160409523Y-117264342D01*
X160409523Y-117264342D02*
X160409523Y-117026247D01*
X160409523Y-117026247D02*
X160457142Y-116931009D01*
X160457142Y-116931009D02*
X160504761Y-116883390D01*
X160504761Y-116883390D02*
X160599999Y-116835771D01*
X160599999Y-116835771D02*
X160790475Y-116835771D01*
X160790475Y-116835771D02*
X160885713Y-116883390D01*
X160885713Y-116883390D02*
X160933332Y-116931009D01*
X160933332Y-116931009D02*
X160980951Y-117026247D01*
X180292857Y-94954819D02*
X180769047Y-94954819D01*
X180769047Y-94954819D02*
X180769047Y-93954819D01*
X179435714Y-94954819D02*
X180007142Y-94954819D01*
X179721428Y-94954819D02*
X179721428Y-93954819D01*
X179721428Y-93954819D02*
X179816666Y-94097676D01*
X179816666Y-94097676D02*
X179911904Y-94192914D01*
X179911904Y-94192914D02*
X180007142Y-94240533D01*
X178578571Y-94288152D02*
X178578571Y-94954819D01*
X178816666Y-93907200D02*
X179054761Y-94621485D01*
X179054761Y-94621485D02*
X178435714Y-94621485D01*
D11*
X124290000Y-67727064D02*
X124290000Y-66272936D01*
X126110000Y-67727064D02*
X126110000Y-66272936D01*
X131180000Y-69259764D02*
X131180000Y-67805636D01*
X133000000Y-69259764D02*
X133000000Y-67805636D01*
X114482200Y-117179736D02*
X114482200Y-118633864D01*
X116302200Y-117179736D02*
X116302200Y-118633864D01*
X110824600Y-118644564D02*
X110824600Y-117190436D01*
X112644600Y-118644564D02*
X112644600Y-117190436D01*
%LPC*%
D12*
X130660000Y-52760000D03*
X130660000Y-57840000D03*
X135740000Y-52760000D03*
X135740000Y-57840000D03*
D13*
X133300000Y-55225000D03*
D14*
X139180000Y-95600000D03*
X139180000Y-98140000D03*
X139180000Y-100680000D03*
X139180000Y-103220000D03*
X139180000Y-105760000D03*
X146800000Y-105760000D03*
X146800000Y-103220000D03*
X146800000Y-100680000D03*
X146800000Y-98140000D03*
X146800000Y-95600000D03*
X188180000Y-110400000D03*
X188180000Y-112940000D03*
X188180000Y-115480000D03*
X188180000Y-118020000D03*
X188180000Y-120560000D03*
X195800000Y-120560000D03*
X195800000Y-118020000D03*
X195800000Y-115480000D03*
X195800000Y-112940000D03*
X195800000Y-110400000D03*
D15*
X104267000Y-124155200D03*
D16*
X106807000Y-124155200D03*
X104267000Y-126695200D03*
X106807000Y-126695200D03*
X104267000Y-129235200D03*
X106807000Y-129235200D03*
X104267000Y-131775200D03*
X106807000Y-131775200D03*
X104267000Y-134315200D03*
X106807000Y-134315200D03*
D14*
X188180000Y-80800000D03*
X188180000Y-83340000D03*
X188180000Y-85880000D03*
X188180000Y-88420000D03*
X188180000Y-90960000D03*
X195800000Y-90960000D03*
X195800000Y-88420000D03*
X195800000Y-85880000D03*
X195800000Y-83340000D03*
X195800000Y-80800000D03*
X139200000Y-66000000D03*
X139200000Y-68540000D03*
X139200000Y-71080000D03*
X139200000Y-73620000D03*
X139200000Y-76160000D03*
X146820000Y-76160000D03*
X146820000Y-73620000D03*
X146820000Y-71080000D03*
X146820000Y-68540000D03*
X146820000Y-66000000D03*
D15*
X104216200Y-86360000D03*
D16*
X106756200Y-86360000D03*
X104216200Y-88900000D03*
X106756200Y-88900000D03*
X104216200Y-91440000D03*
X106756200Y-91440000D03*
X104216200Y-93980000D03*
X106756200Y-93980000D03*
X104216200Y-96520000D03*
X106756200Y-96520000D03*
X104216200Y-99060000D03*
X106756200Y-99060000D03*
X104216200Y-101600000D03*
X106756200Y-101600000D03*
X104216200Y-104140000D03*
X106756200Y-104140000D03*
D12*
X192880000Y-52720000D03*
X187800000Y-52720000D03*
X192880000Y-57800000D03*
X187800000Y-57800000D03*
D13*
X190415000Y-55360000D03*
D12*
X108112000Y-53178000D03*
X103032000Y-53178000D03*
X108112000Y-58258000D03*
X103032000Y-58258000D03*
D13*
X105647000Y-55818000D03*
D14*
X139190000Y-110400000D03*
X139190000Y-112940000D03*
X139190000Y-115480000D03*
X139190000Y-118020000D03*
X139190000Y-120560000D03*
X146810000Y-120560000D03*
X146810000Y-118020000D03*
X146810000Y-115480000D03*
X146810000Y-112940000D03*
X146810000Y-110400000D03*
X139190000Y-80800000D03*
X139190000Y-83340000D03*
X139190000Y-85880000D03*
X139190000Y-88420000D03*
X139190000Y-90960000D03*
X146810000Y-90960000D03*
X146810000Y-88420000D03*
X146810000Y-85880000D03*
X146810000Y-83340000D03*
X146810000Y-80800000D03*
X139190000Y-125200000D03*
X139190000Y-127740000D03*
X139190000Y-130280000D03*
X139190000Y-132820000D03*
X139190000Y-135360000D03*
X146810000Y-135360000D03*
X146810000Y-132820000D03*
X146810000Y-130280000D03*
X146810000Y-127740000D03*
X146810000Y-125200000D03*
X135900000Y-73600000D03*
X135900000Y-71060000D03*
X135900000Y-68520000D03*
X135900000Y-65980000D03*
X135900000Y-63440000D03*
X128280000Y-63440000D03*
X128280000Y-65980000D03*
X128280000Y-68520000D03*
X128280000Y-71060000D03*
X128280000Y-73600000D03*
D17*
X103418000Y-114046000D03*
X105918000Y-114046000D03*
D14*
X188180000Y-95600000D03*
X188180000Y-98140000D03*
X188180000Y-100680000D03*
X188180000Y-103220000D03*
X188180000Y-105760000D03*
X195800000Y-105760000D03*
X195800000Y-103220000D03*
X195800000Y-100680000D03*
X195800000Y-98140000D03*
X195800000Y-95600000D03*
X188180000Y-66000000D03*
X188180000Y-68540000D03*
X188180000Y-71080000D03*
X188180000Y-73620000D03*
X188180000Y-76160000D03*
X195800000Y-76160000D03*
X195800000Y-73620000D03*
X195800000Y-71080000D03*
X195800000Y-68540000D03*
X195800000Y-66000000D03*
X188190000Y-125200000D03*
X188190000Y-127740000D03*
X188190000Y-130280000D03*
X188190000Y-132820000D03*
X188190000Y-135360000D03*
X195810000Y-135360000D03*
X195810000Y-132820000D03*
X195810000Y-130280000D03*
X195810000Y-127740000D03*
X195810000Y-125200000D03*
D18*
X176412500Y-140000000D03*
X176412500Y-130200000D03*
D19*
X125200000Y-65537500D03*
X125200000Y-68462500D03*
D20*
X162200000Y-140000000D03*
X172000000Y-140000000D03*
D21*
X157700000Y-130200000D03*
X157700000Y-140000000D03*
D20*
X162175000Y-125200000D03*
X171975000Y-125200000D03*
D21*
X157425000Y-100600000D03*
X157425000Y-110400000D03*
D19*
X132090000Y-67070200D03*
X132090000Y-69995200D03*
D20*
X161925000Y-110400000D03*
X171725000Y-110400000D03*
D18*
X175776248Y-80810000D03*
X175776248Y-71010000D03*
D22*
X115392200Y-119369300D03*
X115392200Y-116444300D03*
D21*
X157063748Y-71010000D03*
X157063748Y-80810000D03*
D18*
X176137500Y-110400000D03*
X176137500Y-100600000D03*
D20*
X161737500Y-95500000D03*
X171537500Y-95500000D03*
D21*
X157237500Y-85700000D03*
X157237500Y-95500000D03*
D18*
X176387500Y-125200000D03*
X176387500Y-115400000D03*
D20*
X161563748Y-80810000D03*
X171363748Y-80810000D03*
D19*
X111734600Y-116455000D03*
X111734600Y-119380000D03*
D21*
X157675000Y-115400000D03*
X157675000Y-125200000D03*
D18*
X175950000Y-95500000D03*
X175950000Y-85700000D03*
%LPD*%
M02*
