G04 #@! TF.GenerationSoftware,KiCad,Pcbnew,8.0.6*
G04 #@! TF.CreationDate,2024-11-10T19:19:03-05:00*
G04 #@! TF.ProjectId,t41_2_lpf_board_orthog,7434315f-325f-46c7-9066-5f626f617264,rev?*
G04 #@! TF.SameCoordinates,Original*
G04 #@! TF.FileFunction,Soldermask,Bot*
G04 #@! TF.FilePolarity,Negative*
%FSLAX46Y46*%
G04 Gerber Fmt 4.6, Leading zero omitted, Abs format (unit mm)*
G04 Created by KiCad (PCBNEW 8.0.6) date 2024-11-10 19:19:03*
%MOMM*%
%LPD*%
G01*
G04 APERTURE LIST*
G04 Aperture macros list*
%AMRoundRect*
0 Rectangle with rounded corners*
0 $1 Rounding radius*
0 $2 $3 $4 $5 $6 $7 $8 $9 X,Y pos of 4 corners*
0 Add a 4 corners polygon primitive as box body*
4,1,4,$2,$3,$4,$5,$6,$7,$8,$9,$2,$3,0*
0 Add four circle primitives for the rounded corners*
1,1,$1+$1,$2,$3*
1,1,$1+$1,$4,$5*
1,1,$1+$1,$6,$7*
1,1,$1+$1,$8,$9*
0 Add four rect primitives between the rounded corners*
20,1,$1+$1,$2,$3,$4,$5,0*
20,1,$1+$1,$4,$5,$6,$7,0*
20,1,$1+$1,$6,$7,$8,$9,0*
20,1,$1+$1,$8,$9,$2,$3,0*%
G04 Aperture macros list end*
%ADD10C,2.600000*%
%ADD11C,2.500000*%
%ADD12C,1.498600*%
%ADD13RoundRect,0.250000X-0.600000X-0.600000X0.600000X-0.600000X0.600000X0.600000X-0.600000X0.600000X0*%
%ADD14C,1.700000*%
%ADD15C,2.100000*%
%ADD16RoundRect,0.381000X-0.381000X0.762000X-0.381000X-0.762000X0.381000X-0.762000X0.381000X0.762000X0*%
%ADD17RoundRect,0.381000X0.381000X-0.762000X0.381000X0.762000X-0.381000X0.762000X-0.381000X-0.762000X0*%
%ADD18RoundRect,0.250000X-0.625000X0.312500X-0.625000X-0.312500X0.625000X-0.312500X0.625000X0.312500X0*%
%ADD19RoundRect,0.381000X-0.762000X-0.381000X0.762000X-0.381000X0.762000X0.381000X-0.762000X0.381000X0*%
%ADD20RoundRect,0.250000X0.625000X-0.312500X0.625000X0.312500X-0.625000X0.312500X-0.625000X-0.312500X0*%
G04 APERTURE END LIST*
D10*
X130660000Y-52760000D03*
X130660000Y-57840000D03*
X135740000Y-52760000D03*
X135740000Y-57840000D03*
D11*
X133300000Y-55225000D03*
D12*
X139180000Y-95600000D03*
X139180000Y-98140000D03*
X139180000Y-100680000D03*
X139180000Y-103220000D03*
X139180000Y-105760000D03*
X146800000Y-105760000D03*
X146800000Y-103220000D03*
X146800000Y-100680000D03*
X146800000Y-98140000D03*
X146800000Y-95600000D03*
X188180000Y-110400000D03*
X188180000Y-112940000D03*
X188180000Y-115480000D03*
X188180000Y-118020000D03*
X188180000Y-120560000D03*
X195800000Y-120560000D03*
X195800000Y-118020000D03*
X195800000Y-115480000D03*
X195800000Y-112940000D03*
X195800000Y-110400000D03*
D13*
X104267000Y-124155200D03*
D14*
X106807000Y-124155200D03*
X104267000Y-126695200D03*
X106807000Y-126695200D03*
X104267000Y-129235200D03*
X106807000Y-129235200D03*
X104267000Y-131775200D03*
X106807000Y-131775200D03*
X104267000Y-134315200D03*
X106807000Y-134315200D03*
D12*
X188180000Y-80800000D03*
X188180000Y-83340000D03*
X188180000Y-85880000D03*
X188180000Y-88420000D03*
X188180000Y-90960000D03*
X195800000Y-90960000D03*
X195800000Y-88420000D03*
X195800000Y-85880000D03*
X195800000Y-83340000D03*
X195800000Y-80800000D03*
X139200000Y-66000000D03*
X139200000Y-68540000D03*
X139200000Y-71080000D03*
X139200000Y-73620000D03*
X139200000Y-76160000D03*
X146820000Y-76160000D03*
X146820000Y-73620000D03*
X146820000Y-71080000D03*
X146820000Y-68540000D03*
X146820000Y-66000000D03*
D13*
X104216200Y-86360000D03*
D14*
X106756200Y-86360000D03*
X104216200Y-88900000D03*
X106756200Y-88900000D03*
X104216200Y-91440000D03*
X106756200Y-91440000D03*
X104216200Y-93980000D03*
X106756200Y-93980000D03*
X104216200Y-96520000D03*
X106756200Y-96520000D03*
X104216200Y-99060000D03*
X106756200Y-99060000D03*
X104216200Y-101600000D03*
X106756200Y-101600000D03*
X104216200Y-104140000D03*
X106756200Y-104140000D03*
D10*
X192880000Y-52720000D03*
X187800000Y-52720000D03*
X192880000Y-57800000D03*
X187800000Y-57800000D03*
D11*
X190415000Y-55360000D03*
D10*
X108112000Y-53178000D03*
X103032000Y-53178000D03*
X108112000Y-58258000D03*
X103032000Y-58258000D03*
D11*
X105647000Y-55818000D03*
D12*
X139190000Y-110400000D03*
X139190000Y-112940000D03*
X139190000Y-115480000D03*
X139190000Y-118020000D03*
X139190000Y-120560000D03*
X146810000Y-120560000D03*
X146810000Y-118020000D03*
X146810000Y-115480000D03*
X146810000Y-112940000D03*
X146810000Y-110400000D03*
X139190000Y-80800000D03*
X139190000Y-83340000D03*
X139190000Y-85880000D03*
X139190000Y-88420000D03*
X139190000Y-90960000D03*
X146810000Y-90960000D03*
X146810000Y-88420000D03*
X146810000Y-85880000D03*
X146810000Y-83340000D03*
X146810000Y-80800000D03*
X139190000Y-125200000D03*
X139190000Y-127740000D03*
X139190000Y-130280000D03*
X139190000Y-132820000D03*
X139190000Y-135360000D03*
X146810000Y-135360000D03*
X146810000Y-132820000D03*
X146810000Y-130280000D03*
X146810000Y-127740000D03*
X146810000Y-125200000D03*
X135900000Y-73600000D03*
X135900000Y-71060000D03*
X135900000Y-68520000D03*
X135900000Y-65980000D03*
X135900000Y-63440000D03*
X128280000Y-63440000D03*
X128280000Y-65980000D03*
X128280000Y-68520000D03*
X128280000Y-71060000D03*
X128280000Y-73600000D03*
D15*
X103418000Y-114046000D03*
X105918000Y-114046000D03*
D12*
X188180000Y-95600000D03*
X188180000Y-98140000D03*
X188180000Y-100680000D03*
X188180000Y-103220000D03*
X188180000Y-105760000D03*
X195800000Y-105760000D03*
X195800000Y-103220000D03*
X195800000Y-100680000D03*
X195800000Y-98140000D03*
X195800000Y-95600000D03*
X188180000Y-66000000D03*
X188180000Y-68540000D03*
X188180000Y-71080000D03*
X188180000Y-73620000D03*
X188180000Y-76160000D03*
X195800000Y-76160000D03*
X195800000Y-73620000D03*
X195800000Y-71080000D03*
X195800000Y-68540000D03*
X195800000Y-66000000D03*
X188190000Y-125200000D03*
X188190000Y-127740000D03*
X188190000Y-130280000D03*
X188190000Y-132820000D03*
X188190000Y-135360000D03*
X195810000Y-135360000D03*
X195810000Y-132820000D03*
X195810000Y-130280000D03*
X195810000Y-127740000D03*
X195810000Y-125200000D03*
D16*
X157730000Y-115504999D03*
X157730000Y-125304999D03*
D17*
X176412500Y-140250000D03*
X176412500Y-130450000D03*
D18*
X125200000Y-65537500D03*
X125200000Y-68462500D03*
D19*
X162132500Y-135180000D03*
X171932500Y-135180000D03*
D16*
X157712500Y-130250000D03*
X157712500Y-140050000D03*
D17*
X176430000Y-125504999D03*
X176430000Y-115704999D03*
D19*
X161680000Y-90779999D03*
X171480000Y-90779999D03*
D18*
X132090000Y-67070200D03*
X132090000Y-69995200D03*
D17*
X176082500Y-110699999D03*
X176082500Y-100899999D03*
D20*
X115392200Y-119369300D03*
X115392200Y-116444300D03*
D19*
X161540000Y-76029999D03*
X171340000Y-76029999D03*
D17*
X175820000Y-81099999D03*
X175820000Y-71299999D03*
D18*
X111734600Y-116455000D03*
X111734600Y-119380000D03*
D16*
X157382500Y-100699999D03*
X157382500Y-110499999D03*
D19*
X162150000Y-120434999D03*
X171950000Y-120434999D03*
D16*
X157260000Y-85849999D03*
X157260000Y-95649999D03*
X157120000Y-71099999D03*
X157120000Y-80899999D03*
D19*
X161802500Y-105629999D03*
X171602500Y-105629999D03*
D17*
X175960000Y-95849999D03*
X175960000Y-86049999D03*
M02*
