M48
; DRILL file {KiCad 8.0.6} date 2024-11-10T19:19:06-0500
; FORMAT={-:-/ absolute / metric / decimal}
; #@! TF.CreationDate,2024-11-10T19:19:06-05:00
; #@! TF.GenerationSoftware,Kicad,Pcbnew,8.0.6
; #@! TF.FileFunction,Plated,1,2,PTH
FMAT,2
METRIC
; #@! TA.AperFunction,Plated,PTH,ViaDrill
T1C0.500
; #@! TA.AperFunction,Plated,PTH,ComponentDrill
T2C0.991
; #@! TA.AperFunction,Plated,PTH,ComponentDrill
T3C1.000
; #@! TA.AperFunction,Plated,PTH,ComponentDrill
T4C1.100
; #@! TA.AperFunction,Plated,PTH,ComponentDrill
T5C1.500
; #@! TA.AperFunction,Plated,PTH,ComponentDrill
T6C1.600
%
G90
G05
T1
X101.4Y-69.3
X101.727Y-143.2
X103.378Y-121.158
X105.664Y-84.455
X106.888Y-122.388
X108.204Y-135.763
X108.458Y-90.17
X108.6Y-110.1
X108.7Y-118.1
X109.3Y-74.1
X110.109Y-92.837
X110.273Y-127.322
X110.3Y-112.0
X111.125Y-141.605
X111.252Y-138.176
X112.5Y-95.4
X112.522Y-99.314
X112.522Y-103.759
X112.903Y-85.598
X113.2Y-62.2
X113.3Y-74.1
X113.6Y-115.3
X113.9Y-108.4
X114.681Y-132.969
X115.2Y-61.9
X115.2Y-129.6
X116.275Y-122.1
X116.7Y-105.8
X116.9Y-90.6
X117.094Y-100.076
X117.1Y-74.1
X117.2Y-62.2
X117.475Y-95.504
X118.2Y-113.4
X119.1Y-81.2
X119.2Y-118.1
X119.888Y-129.032
X121.0Y-62.0
X121.0Y-116.3
X121.1Y-74.1
X121.301Y-114.222
X121.6Y-84.9
X121.7Y-110.0
X122.047Y-121.031
X122.428Y-133.35
X122.8Y-61.7
X123.65Y-138.175
X124.3Y-101.9
X125.21Y-122.328
X125.21Y-129.756
X125.5Y-105.9
X125.6Y-120.7
X125.7Y-112.4
X125.75Y-137.375
X125.775Y-140.6
X125.8Y-115.5
X126.125Y-133.725
X127.594Y-101.5
X127.6Y-85.2
X128.2Y-109.3
X128.9Y-97.5
X129.0Y-77.1
X129.0Y-80.7
X129.7Y-69.8
X130.113Y-125.222
X130.302Y-123.444
X130.302Y-126.873
X130.4Y-119.2
X130.429Y-130.048
X130.9Y-109.3
X131.0Y-101.2
X131.3Y-93.6
X131.7Y-77.4
X132.0Y-97.8
X132.1Y-105.8
X132.8Y-110.4
X133.1Y-83.7
X133.2Y-118.7
X134.3Y-67.3
X134.6Y-75.0
X134.8Y-101.7
X135.4Y-110.8
X135.5Y-89.5
X135.6Y-117.775
X135.6Y-126.3
X135.8Y-79.2
X136.2Y-136.2
X137.2Y-130.475
X137.3Y-95.6
X137.5Y-77.2
X137.6Y-64.8
X138.5Y-122.6
X139.4Y-108.3
X140.6Y-119.3
X140.8Y-134.1
X140.9Y-85.0
X141.0Y-114.7
X141.5Y-65.4
X141.5Y-126.8
X141.6Y-124.0
X142.2Y-71.6
X142.3Y-61.5
X142.6Y-101.6
X143.3Y-67.8
X143.5Y-107.6
X144.0Y-92.7
X144.1Y-83.4
X144.2Y-78.0
X144.2Y-80.4
X144.4Y-118.2
X144.8Y-73.9
X144.8Y-122.9
X145.0Y-89.0
X145.3Y-69.7
X145.3Y-134.1
X148.5Y-117.1
X148.5Y-131.9
X148.54Y-64.31
X148.775Y-126.825
X149.79Y-73.75
X150.1Y-103.2
X151.92Y-84.21
X152.1Y-75.88
X152.16Y-69.36
X152.2Y-90.6
X152.2Y-113.8
X152.4Y-105.4
X152.6Y-135.0
X152.618Y-120.255
X153.407Y-75.85
X153.5Y-128.1
X153.547Y-90.6
X153.67Y-105.45
X154.0Y-135.0
X154.017Y-120.255
X154.06Y-79.42
X154.457Y-71.1
X154.597Y-85.85
X154.72Y-100.7
X155.05Y-130.25
X155.067Y-115.505
X155.3Y-95.3
X155.3Y-111.4
X155.607Y-71.1
X155.748Y-85.85
X155.8Y-125.9
X155.87Y-100.7
X156.0Y-141.8
X156.2Y-130.25
X156.218Y-115.505
X160.5Y-96.6
X160.5Y-111.6
X160.6Y-81.68
X160.6Y-126.7
X161.54Y-73.4
X161.54Y-74.5
X161.68Y-88.15
X161.68Y-89.25
X161.802Y-103.0
X161.802Y-104.1
X162.132Y-132.55
X162.132Y-133.65
X162.15Y-117.805
X162.15Y-118.905
X162.9Y-51.3
X166.308Y-70.95
X166.308Y-72.35
X166.447Y-85.7
X166.447Y-87.1
X166.57Y-100.55
X166.57Y-101.95
X166.607Y-79.65
X166.607Y-80.95
X166.68Y-61.59
X166.68Y-64.45
X166.7Y-67.25
X166.748Y-94.4
X166.748Y-95.7
X166.87Y-109.25
X166.87Y-110.55
X166.9Y-130.1
X166.9Y-131.5
X166.917Y-115.355
X166.917Y-116.755
X167.2Y-138.8
X167.2Y-140.1
X167.218Y-124.055
X167.218Y-125.355
X171.34Y-77.4
X171.34Y-78.5
X171.48Y-92.15
X171.48Y-93.25
X171.602Y-107.0
X171.602Y-108.1
X171.933Y-136.55
X171.933Y-137.65
X171.95Y-121.805
X171.95Y-122.905
X173.9Y-85.0
X174.1Y-99.6
X174.4Y-114.7
X174.4Y-129.8
X177.457Y-71.3
X177.597Y-86.05
X177.72Y-100.9
X177.9Y-81.7
X178.0Y-96.6
X178.05Y-130.45
X178.067Y-115.705
X178.1Y-111.5
X178.2Y-142.0
X178.607Y-71.3
X178.748Y-86.05
X178.8Y-126.3
X178.87Y-100.9
X179.2Y-130.45
X179.218Y-115.705
X179.808Y-76.05
X179.947Y-90.8
X180.07Y-105.65
X180.4Y-135.2
X180.417Y-120.455
X181.2Y-76.1
X181.25Y-90.77
X181.4Y-105.7
X181.49Y-84.09
X181.7Y-98.9
X181.7Y-135.2
X181.718Y-120.455
X181.8Y-113.9
X181.9Y-128.2
X182.0Y-64.5
X182.14Y-68.94
X185.575Y-79.35
X185.6Y-75.5
X185.7Y-90.2
X185.75Y-94.2
X185.875Y-108.875
X185.9Y-105.0
X186.075Y-62.875
X186.2Y-118.5
X186.3Y-132.1
X186.325Y-82.075
X186.325Y-111.7
X186.35Y-123.36
X186.35Y-126.475
X188.8Y-62.9
X189.7Y-134.1
X190.0Y-65.4
X190.9Y-122.4
X191.0Y-124.9
X191.525Y-107.475
X191.6Y-78.0
X191.6Y-80.4
X191.6Y-92.7
X191.6Y-95.3
X191.7Y-110.1
X193.9Y-85.2
X194.0Y-99.9
X194.0Y-114.7
X194.1Y-66.9
X194.1Y-70.2
X194.2Y-126.5
X194.3Y-122.4
X194.8Y-78.0
X194.9Y-93.0
X197.4Y-69.8
X197.7Y-142.6
X198.125Y-85.85
X198.15Y-100.675
X198.2Y-115.475
X198.25Y-130.2
X198.5Y-62.7
T2
X128.28Y-63.44
X128.28Y-65.98
X128.28Y-68.52
X128.28Y-71.06
X128.28Y-73.6
X135.9Y-63.44
X135.9Y-65.98
X135.9Y-68.52
X135.9Y-71.06
X135.9Y-73.6
X139.18Y-95.6
X139.18Y-98.14
X139.18Y-100.68
X139.18Y-103.22
X139.18Y-105.76
X139.19Y-80.8
X139.19Y-83.34
X139.19Y-85.88
X139.19Y-88.42
X139.19Y-90.96
X139.19Y-110.4
X139.19Y-112.94
X139.19Y-115.48
X139.19Y-118.02
X139.19Y-120.56
X139.19Y-125.2
X139.19Y-127.74
X139.19Y-130.28
X139.19Y-132.82
X139.19Y-135.36
X139.2Y-66.0
X139.2Y-68.54
X139.2Y-71.08
X139.2Y-73.62
X139.2Y-76.16
X146.8Y-95.6
X146.8Y-98.14
X146.8Y-100.68
X146.8Y-103.22
X146.8Y-105.76
X146.81Y-80.8
X146.81Y-83.34
X146.81Y-85.88
X146.81Y-88.42
X146.81Y-90.96
X146.81Y-110.4
X146.81Y-112.94
X146.81Y-115.48
X146.81Y-118.02
X146.81Y-120.56
X146.81Y-125.2
X146.81Y-127.74
X146.81Y-130.28
X146.81Y-132.82
X146.81Y-135.36
X146.82Y-66.0
X146.82Y-68.54
X146.82Y-71.08
X146.82Y-73.62
X146.82Y-76.16
X188.18Y-66.0
X188.18Y-68.54
X188.18Y-71.08
X188.18Y-73.62
X188.18Y-76.16
X188.18Y-80.8
X188.18Y-83.34
X188.18Y-85.88
X188.18Y-88.42
X188.18Y-90.96
X188.18Y-95.6
X188.18Y-98.14
X188.18Y-100.68
X188.18Y-103.22
X188.18Y-105.76
X188.18Y-110.4
X188.18Y-112.94
X188.18Y-115.48
X188.18Y-118.02
X188.18Y-120.56
X188.19Y-125.2
X188.19Y-127.74
X188.19Y-130.28
X188.19Y-132.82
X188.19Y-135.36
X195.8Y-66.0
X195.8Y-68.54
X195.8Y-71.08
X195.8Y-73.62
X195.8Y-76.16
X195.8Y-80.8
X195.8Y-83.34
X195.8Y-85.88
X195.8Y-88.42
X195.8Y-90.96
X195.8Y-95.6
X195.8Y-98.14
X195.8Y-100.68
X195.8Y-103.22
X195.8Y-105.76
X195.8Y-110.4
X195.8Y-112.94
X195.8Y-115.48
X195.8Y-118.02
X195.8Y-120.56
X195.81Y-125.2
X195.81Y-127.74
X195.81Y-130.28
X195.81Y-132.82
X195.81Y-135.36
T3
X104.216Y-86.36
X104.216Y-88.9
X104.216Y-91.44
X104.216Y-93.98
X104.216Y-96.52
X104.216Y-99.06
X104.216Y-101.6
X104.216Y-104.14
X104.267Y-124.155
X104.267Y-126.695
X104.267Y-129.235
X104.267Y-131.775
X104.267Y-134.315
X106.756Y-86.36
X106.756Y-88.9
X106.756Y-91.44
X106.756Y-93.98
X106.756Y-96.52
X106.756Y-99.06
X106.756Y-101.6
X106.756Y-104.14
X106.807Y-124.155
X106.807Y-126.695
X106.807Y-129.235
X106.807Y-131.775
X106.807Y-134.315
T4
X103.418Y-114.046
X105.918Y-114.046
T5
X105.647Y-55.818
X133.3Y-55.225
X190.415Y-55.36
T6
X103.032Y-53.178
X103.032Y-58.258
X108.112Y-53.178
X108.112Y-58.258
X130.66Y-52.76
X130.66Y-57.84
X135.74Y-52.76
X135.74Y-57.84
X187.8Y-52.72
X187.8Y-57.8
X192.88Y-52.72
X192.88Y-57.8
M30
